<svg width="45" height="48" viewBox="0 0 45 48" fill="none" xmlns="http://www.w3.org/2000/svg">
<path d="M16.5113 4.42712C16.2323 4.66773 15.8038 5.02382 15.8038 5.71677C15.8038 6.03436 16.0728 6.29422 16.4017 6.29422C16.7305 6.29422 16.9996 6.03436 16.9996 5.71677C16.9996 5.56278 17.0594 5.49541 17.2985 5.2933C17.5775 5.0527 18.006 4.6966 18.006 4.00366C18.006 3.31072 17.5775 2.95462 17.2985 2.71402C17.0594 2.50229 16.9996 2.44454 16.9996 2.29056C16.9996 2.13657 17.0594 2.07882 17.2985 1.86709C17.5775 1.62649 18.006 1.27039 18.006 0.577451C18.006 0.259853 17.7369 0 17.4081 0C17.0793 0 16.8102 0.259853 16.8102 0.577451C16.8102 0.731438 16.7504 0.798807 16.5113 1.00092C16.2323 1.24152 15.8038 1.59761 15.8038 2.29056C15.8038 2.9835 16.2323 3.33959 16.5113 3.5802C16.7504 3.79193 16.8102 3.84967 16.8102 4.00366C16.8102 4.15765 16.7604 4.22502 16.5113 4.42712Z" fill="url(#paint0_linear_279_14798)"/>
<path d="M12.3461 4.42712C12.0671 4.66773 11.6386 5.02382 11.6386 5.71677C11.6386 6.03436 11.9077 6.29422 12.2365 6.29422C12.5653 6.29422 12.8344 6.03436 12.8344 5.71677C12.8344 5.56278 12.8942 5.49541 13.1333 5.2933C13.4123 5.0527 13.8408 4.6966 13.8408 4.00366C13.8408 3.31072 13.4123 2.95462 13.1333 2.71402C12.8942 2.50229 12.8344 2.44454 12.8344 2.29056C12.8344 2.13657 12.8942 2.07882 13.1333 1.86709C13.4123 1.62649 13.8408 1.27039 13.8408 0.577451C13.8408 0.259853 13.5718 0 13.2429 0C12.9141 0 12.645 0.259853 12.645 0.577451C12.645 0.731438 12.5853 0.798807 12.3461 1.00092C12.0671 1.24152 11.6386 1.59761 11.6386 2.29056C11.6386 2.9835 12.0671 3.33959 12.3461 3.5802C12.5853 3.79193 12.645 3.84967 12.645 4.00366C12.645 4.15765 12.5952 4.22502 12.3461 4.42712Z" fill="url(#paint1_linear_279_14798)"/>
<path d="M20.6765 4.42712C20.3975 4.66773 19.969 5.02382 19.969 5.71677C19.969 6.03436 20.238 6.29422 20.5669 6.29422C20.8957 6.29422 21.1648 6.03436 21.1648 5.71677C21.1648 5.56278 21.2246 5.49541 21.4637 5.2933C21.7427 5.0527 22.1712 4.6966 22.1712 4.00366C22.1712 3.31072 21.7427 2.95462 21.4637 2.71402C21.2246 2.50229 21.1648 2.44454 21.1648 2.29056C21.1648 2.13657 21.2246 2.07882 21.4637 1.86709C21.7427 1.62649 22.1712 1.27039 22.1712 0.577451C22.1712 0.259853 21.9022 0 21.5733 0C21.2445 0 20.9755 0.259853 20.9755 0.577451C20.9755 0.731438 20.9157 0.798807 20.6765 1.00092C20.3975 1.24152 19.969 1.59761 19.969 2.29056C19.969 2.9835 20.3975 3.33959 20.6765 3.5802C20.9157 3.79193 20.9755 3.84967 20.9755 4.00366C20.9755 4.15765 20.9157 4.22502 20.6765 4.42712Z" fill="url(#paint2_linear_279_14798)"/>
<path d="M24.8417 4.42712C24.5627 4.66773 24.1342 5.02382 24.1342 5.71677C24.1342 6.03436 24.4033 6.29422 24.7321 6.29422C25.0609 6.29422 25.3299 6.03436 25.3299 5.71677C25.3299 5.56278 25.3897 5.49541 25.6289 5.2933C25.9079 5.0527 26.3363 4.6966 26.3363 4.00366C26.3363 3.31072 25.9079 2.95462 25.6289 2.71402C25.3897 2.50229 25.3299 2.44454 25.3299 2.29056C25.3299 2.13657 25.3897 2.07882 25.6289 1.86709C25.9079 1.62649 26.3363 1.27039 26.3363 0.577451C26.3363 0.259853 26.0673 0 25.7385 0C25.4096 0 25.1406 0.259853 25.1406 0.577451C25.1406 0.731438 25.0808 0.798807 24.8417 1.00092C24.5627 1.24152 24.1342 1.59761 24.1342 2.29056C24.1342 2.9835 24.5627 3.33959 24.8417 3.5802C25.0808 3.79193 25.1406 3.84967 25.1406 4.00366C25.1406 4.15765 25.0808 4.22502 24.8417 4.42712Z" fill="url(#paint3_linear_279_14798)"/>
<path d="M42.8576 8.47853H34.2383C33.9094 8.47853 33.6404 8.73839 33.6404 9.05598V9.97028H30.4218V8.45929C30.4218 8.14169 30.1528 7.88184 29.824 7.88184H27.293C26.9641 7.88184 26.6951 8.14169 26.6951 8.45929V9.97028H26.3663C26.0374 8.53628 24.5627 7.63161 23.0779 7.9492C22.0317 8.17056 21.2146 8.95974 20.9854 9.97028H20.5569V8.45929C20.5569 8.14169 20.2879 7.88184 19.959 7.88184H17.428C17.0992 7.88184 16.8302 8.14169 16.8302 8.45929V9.97028H16.4017C16.0729 8.53628 14.5981 7.63161 13.1134 7.9492C12.0671 8.17056 11.25 8.95974 11.0208 9.97028H10.692V8.45929C10.692 8.14169 10.4229 7.88184 10.0941 7.88184H7.36382C7.03499 7.88184 6.76594 8.14169 6.76594 8.45929V9.97028H4.28476C3.95593 9.97028 3.68689 10.2301 3.68689 10.5477C3.68689 10.8653 3.95593 11.1252 4.28476 11.1252H6.76594V12.6362C6.76594 12.9538 7.03499 13.2136 7.36382 13.2136H10.0941C10.4229 13.2136 10.692 12.9538 10.692 12.6362V11.1252H11.0208C11.3496 12.5592 12.8244 13.4639 14.3091 13.1463C15.3554 12.9249 16.1725 12.1357 16.4017 11.1252H16.8302V12.6362C16.8302 12.9538 17.0992 13.2136 17.428 13.2136H19.959C20.2879 13.2136 20.5569 12.9538 20.5569 12.6362V11.1252H20.9854C21.3142 12.5592 22.789 13.4639 24.2737 13.1463C25.32 12.9249 26.1371 12.1357 26.3663 11.1252H26.6951V12.6362C26.6951 12.9538 26.9641 13.2136 27.293 13.2136H29.824C30.1528 13.2136 30.4218 12.9538 30.4218 12.6362V11.1252H33.6404V12.0395C33.6404 12.3571 33.9094 12.6169 34.2383 12.6169H42.8576C44.0434 12.6169 45 11.693 45 10.5477C45 9.40245 44.0434 8.47853 42.8576 8.47853ZM9.49623 12.0587H7.96169V9.03674H9.49623V12.0587V12.0587ZM14.8173 11.616C14.2095 12.2031 13.213 12.2031 12.6052 11.616C11.9973 11.0289 11.9973 10.0665 12.6052 9.47945C13.213 8.89237 14.2095 8.89237 14.8173 9.47945C15.1163 9.75855 15.2757 10.1435 15.2757 10.5477C15.2757 10.9423 15.1063 11.3273 14.8173 11.616ZM19.3612 12.0587H18.0259V9.03674H19.3612V12.0587ZM24.7819 11.616C24.174 12.2031 23.1776 12.2031 22.5697 11.616C21.9619 11.0289 21.9619 10.0665 22.5697 9.47945C23.1776 8.89237 24.174 8.89237 24.7819 9.47945C25.0808 9.75855 25.2403 10.1435 25.2403 10.5477C25.2403 10.9423 25.0709 11.3273 24.7819 11.616ZM29.2261 12.0587H27.8908V9.03674H29.2261V12.0587ZM35.5337 11.462H34.8361V9.63343H35.5337V11.462ZM43.5252 11.1925C43.3459 11.3658 43.1067 11.462 42.8576 11.462H36.7294V9.63343H42.8576C43.3758 9.63343 43.8042 10.0473 43.8042 10.5477C43.8042 10.7883 43.7046 11.0193 43.5252 11.1925Z" fill="url(#paint4_linear_279_14798)"/>
<path d="M4.87265 22.6843C4.72318 22.4052 4.35449 22.2897 4.06551 22.4437C3.77654 22.5881 3.65696 22.9345 3.8164 23.2233C5.07195 25.5523 6.9453 27.5156 9.22721 28.9304C9.50622 29.1036 9.87491 29.0266 10.0543 28.7571C10.2336 28.4877 10.1539 28.1316 9.87491 27.9583C7.75244 26.6495 6.02855 24.8305 4.87265 22.6843Z" fill="url(#paint5_linear_279_14798)"/>
<path d="M4.17511 21.1832C4.05554 20.8656 3.94594 20.548 3.8463 20.2401C3.74666 19.9321 3.41785 19.7685 3.09901 19.8551C2.79012 19.9513 2.61077 20.2593 2.70045 20.5673C2.80009 20.9041 2.91965 21.2506 3.05915 21.5875C3.16875 21.8858 3.51749 22.0398 3.82637 21.9339C4.13526 21.8184 4.29468 21.4912 4.17511 21.1832Z" fill="url(#paint6_linear_279_14798)"/>
<path d="M37.5864 17.497H35.0056C35.0355 17.112 35.0454 16.7271 35.0454 16.3421C35.0454 16.0245 34.7764 15.7646 34.4476 15.7646H0.597875C0.269044 15.7646 0 16.0245 0 16.3421C0 17.0735 0.0498229 17.7953 0.149469 18.5172V18.5268C0.966564 24.4745 4.97233 29.556 10.682 31.914L3.13884 47.1586C2.98937 47.4473 3.10895 47.7938 3.40789 47.9382C3.70682 48.0825 4.06555 47.967 4.21502 47.6783C4.21502 47.6687 4.22498 47.6687 4.22498 47.6591L5.38087 45.3204H26.7748C27.2232 47.1779 29.1364 48.3328 31.0596 47.9093C32.9828 47.4762 34.1785 45.6284 33.7401 43.7709C33.2917 41.9134 31.3785 40.7585 29.4553 41.182C29.3058 41.2109 29.1663 41.259 29.0268 41.3071L24.3933 31.914C28.7777 30.1046 32.2055 26.6592 33.9095 22.3572H37.5964C37.9252 22.3572 38.1942 22.0973 38.1942 21.7797V18.0744C38.1843 17.7472 37.9152 17.497 37.5864 17.497ZM29.0368 42.5679C30.1628 41.9231 31.6176 42.2888 32.2852 43.3763C32.9529 44.4638 32.5742 45.869 31.4482 46.5138C30.3222 47.1586 28.8674 46.7929 28.1998 45.7054C28.0104 45.3974 27.9008 45.0509 27.8709 44.6948C27.8709 44.6467 27.861 44.5986 27.861 44.5505C27.8709 43.7324 28.3193 42.9817 29.0368 42.5679ZM27.9805 41.875C27.2631 42.4428 26.8047 43.2608 26.7051 44.1559H5.93889L11.7881 32.3278C15.5049 33.5693 19.5505 33.5693 23.2573 32.3182L27.9805 41.875ZM33.77 17.882H11.0906C10.7617 17.882 10.4927 18.1418 10.4927 18.4594C10.4927 18.777 10.7617 19.0369 11.0906 19.0369H33.6105C32.066 27.612 23.6161 33.3672 14.7376 31.8755C13.7013 31.7022 12.6749 31.4328 11.6984 31.067C6.32751 29.0748 2.44132 24.5034 1.44486 19.0369H7.71259C8.04142 19.0369 8.31046 18.777 8.31046 18.4594C8.31046 18.1418 8.04142 17.882 7.71259 17.882H1.27547C1.24557 17.5644 1.21568 17.2468 1.20571 16.9195H33.8298C33.8198 17.2371 33.7999 17.5644 33.77 17.882ZM36.9885 21.1927H34.3081C34.5671 20.3554 34.7565 19.5084 34.886 18.6423H36.9885V21.1927Z" fill="url(#paint7_linear_279_14798)"/>
<defs>
<linearGradient id="paint0_linear_279_14798" x1="16.7357" y1="4.32449" x2="20.5933" y2="1.8985" gradientUnits="userSpaceOnUse">
<stop stop-color="#713E8B"/>
<stop offset="0.54" stop-color="#D4242F"/>
<stop offset="1" stop-color="#713E8B"/>
</linearGradient>
<linearGradient id="paint1_linear_279_14798" x1="12.5705" y1="4.32449" x2="16.4281" y2="1.8985" gradientUnits="userSpaceOnUse">
<stop stop-color="#713E8B"/>
<stop offset="0.54" stop-color="#D4242F"/>
<stop offset="1" stop-color="#713E8B"/>
</linearGradient>
<linearGradient id="paint2_linear_279_14798" x1="20.9009" y1="4.32449" x2="24.7585" y2="1.89842" gradientUnits="userSpaceOnUse">
<stop stop-color="#713E8B"/>
<stop offset="0.54" stop-color="#D4242F"/>
<stop offset="1" stop-color="#713E8B"/>
</linearGradient>
<linearGradient id="paint3_linear_279_14798" x1="25.0661" y1="4.32449" x2="28.9236" y2="1.89863" gradientUnits="userSpaceOnUse">
<stop stop-color="#713E8B"/>
<stop offset="0.54" stop-color="#D4242F"/>
<stop offset="1" stop-color="#713E8B"/>
</linearGradient>
<linearGradient id="paint4_linear_279_14798" x1="21.1695" y1="11.5451" x2="21.6875" y2="4.33126" gradientUnits="userSpaceOnUse">
<stop stop-color="#713E8B"/>
<stop offset="0.54" stop-color="#D4242F"/>
<stop offset="1" stop-color="#713E8B"/>
</linearGradient>
<linearGradient id="paint5_linear_279_14798" x1="6.4556" y1="26.9425" x2="10.3707" y2="20.1624" gradientUnits="userSpaceOnUse">
<stop stop-color="#713E8B"/>
<stop offset="0.54" stop-color="#D4242F"/>
<stop offset="1" stop-color="#713E8B"/>
</linearGradient>
<linearGradient id="paint6_linear_279_14798" x1="3.328" y1="21.2991" x2="4.73295" y2="19.4806" gradientUnits="userSpaceOnUse">
<stop stop-color="#713E8B"/>
<stop offset="0.54" stop-color="#D4242F"/>
<stop offset="1" stop-color="#713E8B"/>
</linearGradient>
<linearGradient id="paint7_linear_279_14798" x1="16.1628" y1="37.9124" x2="33.0287" y2="1.99251" gradientUnits="userSpaceOnUse">
<stop stop-color="#713E8B"/>
<stop offset="0.54" stop-color="#D4242F"/>
<stop offset="1" stop-color="#713E8B"/>
</linearGradient>
</defs>
</svg>
