<svg width="45" height="46" viewBox="0 0 45 46" fill="none" xmlns="http://www.w3.org/2000/svg">
<path d="M32.935 12.9392C32.6358 12.804 32.2768 12.9295 32.1372 13.2192C31.3295 14.9186 30.9905 16.8884 31.1301 19.0706C31.1501 19.3796 31.4093 19.6113 31.7284 19.6113C31.7384 19.6113 31.7583 19.6113 31.7683 19.6113C32.0974 19.592 32.3467 19.312 32.3267 18.9934C32.1971 17.0043 32.4962 15.2276 33.2242 13.702C33.3638 13.4123 33.2341 13.0743 32.935 12.9392Z" fill="url(#paint0_linear_279_14764)"/>
<path d="M34.3109 10.37C33.9619 10.6596 33.6329 10.9879 33.3437 11.3355C33.1343 11.5866 33.1742 11.9438 33.4235 12.1466C33.6827 12.3494 34.0517 12.3107 34.2611 12.0693C34.2611 12.0693 34.2611 12.0693 34.2611 12.0597C34.5004 11.77 34.7796 11.49 35.0688 11.2486C35.318 11.0362 35.3479 10.6693 35.1286 10.4279C34.9292 10.1962 34.5602 10.1672 34.3109 10.37Z" fill="url(#paint1_linear_279_14764)"/>
<path d="M14.3486 18.3456C14.3486 16.3083 13.7902 14.3192 12.7632 12.7357C12.5937 12.4653 12.2247 12.3784 11.9356 12.5425C11.6464 12.7067 11.5666 13.064 11.7361 13.344C11.7361 13.344 11.7361 13.3536 11.7461 13.3536C12.6535 14.7537 13.1421 16.5207 13.1421 18.3456C13.1421 22.2562 10.8986 25.5681 7.91715 26.0606C7.5881 26.1185 7.36874 26.4178 7.42856 26.7268C7.42856 26.7558 7.43853 26.7848 7.44851 26.8137L7.84735 27.9821H6.49127L6.89012 26.8137C6.98983 26.5144 6.82032 26.1861 6.51121 26.0799C6.4813 26.0702 6.45138 26.0606 6.42147 26.0606C3.44007 25.5681 1.19655 22.2466 1.19655 18.3456C1.19655 14.0585 3.87881 10.5728 7.16931 10.5728C8.18638 10.5728 9.20344 10.9204 10.0909 11.5673C10.3501 11.7604 10.729 11.7121 10.9285 11.4514C11.1279 11.2004 11.078 10.8335 10.8088 10.6404C9.71197 9.83893 8.4556 9.41408 7.16931 9.41408C3.22071 9.40442 0 13.4116 0 18.3456C0 22.5266 2.34324 26.1282 5.55397 27.0551L5.10527 28.3876C5.00556 28.687 5.17507 29.0152 5.48417 29.1215C5.544 29.1408 5.60383 29.1504 5.67363 29.1504H6.60095C6.71063 30.0001 7.16931 30.4926 7.55819 30.8981C7.94707 31.3037 8.22626 31.603 8.22626 32.2499C8.22626 32.8969 7.94707 33.1962 7.55819 33.6017C7.11946 34.0652 6.58101 34.6445 6.58101 35.7356C6.58101 36.8267 7.11946 37.4061 7.55819 37.8696C7.94707 38.2848 8.22626 38.5744 8.22626 39.2214C8.22626 39.8683 7.94707 40.1676 7.55819 40.5732C7.11946 41.0367 6.58101 41.616 6.58101 42.7071C6.58101 43.0257 6.85023 43.2864 7.17928 43.2864C7.50833 43.2864 7.77756 43.0257 7.77756 42.7071C7.77756 42.0602 8.05675 41.7608 8.44563 41.3553C8.88436 40.8918 9.42281 40.3125 9.42281 39.2214C9.42281 38.1303 8.88436 37.5509 8.44563 37.0875C8.05675 36.6723 7.77756 36.3826 7.77756 35.7356C7.77756 35.0887 8.05675 34.7894 8.44563 34.3838C8.88436 33.9204 9.42281 33.341 9.42281 32.2499C9.42281 31.1588 8.88436 30.5795 8.44563 30.116C8.14649 29.7974 7.90718 29.5463 7.81744 29.1504H8.67497C9.00402 29.1504 9.27324 28.8897 9.27324 28.5711C9.27324 28.5131 9.26327 28.4456 9.24333 28.3876L8.79462 27.0551C12.0054 26.1282 14.3486 22.5266 14.3486 18.3456Z" fill="url(#paint2_linear_279_14764)"/>
<path d="M3.97859 14.8308C3.67945 14.6956 3.32048 14.8211 3.18088 15.1108C2.48289 16.5784 2.19372 18.2778 2.31338 20.1511C2.33332 20.46 2.59257 20.6918 2.91166 20.6918C2.92163 20.6918 2.94157 20.6918 2.95154 20.6918C3.2806 20.6725 3.52988 20.3924 3.50994 20.0738C3.40025 18.3937 3.64954 16.8874 4.26776 15.5936C4.40736 15.3039 4.27773 14.9659 3.97859 14.8308Z" fill="url(#paint3_linear_279_14764)"/>
<path d="M5.15516 14.2033C5.35459 13.9522 5.58393 13.7301 5.83322 13.5273C6.0825 13.3245 6.11242 12.9576 5.90302 12.7065C5.69362 12.4555 5.3147 12.4361 5.05545 12.6389C4.74633 12.89 4.46713 13.17 4.21784 13.479C4.00844 13.7301 4.04833 14.0971 4.30759 14.2902C4.57682 14.493 4.94576 14.4543 5.15516 14.2033Z" fill="url(#paint4_linear_279_14764)"/>
<path d="M16.0536 31.9119H14.9369V30.8401C14.9369 30.5214 14.6677 30.2607 14.3386 30.2607C14.0096 30.2607 13.7404 30.5214 13.7404 30.8401V31.9119H12.6336C12.3046 31.9119 12.0353 32.1726 12.0353 32.4912C12.0353 32.8098 12.3046 33.0705 12.6336 33.0705H13.7404V34.152C13.7404 34.4706 14.0096 34.7313 14.3386 34.7313C14.6677 34.7313 14.9369 34.4706 14.9369 34.152V33.0705H16.0536C16.3827 33.0705 16.6519 32.8098 16.6519 32.4912C16.6519 32.1726 16.3827 31.9119 16.0536 31.9119Z" fill="url(#paint5_linear_279_14764)"/>
<path d="M9.47262 6.15069C10.5196 6.15069 11.3671 5.32995 11.3671 4.31609C11.3671 3.83331 11.1677 3.36017 10.8087 3.02222C10.0709 2.3077 8.87436 2.3077 8.12653 3.02222C7.37871 3.73675 7.38868 4.89544 8.12653 5.61962C8.48549 5.95757 8.97407 6.15069 9.47262 6.15069ZM8.97407 3.83331C9.24328 3.5726 9.69198 3.5726 9.9612 3.83331C10.2304 4.09401 10.2304 4.52852 9.9612 4.78923C9.69198 5.04993 9.24328 5.04993 8.97407 4.78923C8.84444 4.6637 8.77465 4.4899 8.77465 4.31609C8.77465 4.13264 8.84444 3.96849 8.97407 3.83331Z" fill="url(#paint6_linear_279_14764)"/>
<path d="M32.5659 30.9175C32.6657 30.6182 32.4961 30.2899 32.187 30.1837C32.0674 30.1451 31.9278 30.1451 31.8081 30.1837L30.9805 30.454C30.4919 30.6085 29.9734 30.6085 29.4848 30.454L28.6572 30.1837C28.3481 30.0775 28.0091 30.2416 27.8994 30.5506C27.8595 30.6665 27.8595 30.8016 27.8994 30.9175L28.1786 31.7189C28.3382 32.192 28.3382 32.6941 28.1786 33.1672L27.8994 33.9686C27.7997 34.268 27.9692 34.5962 28.2783 34.7025C28.398 34.7411 28.5376 34.7411 28.6572 34.7025L29.4848 34.4321C29.9734 34.2776 30.4919 34.2776 30.9805 34.4321L31.8081 34.7025C32.1172 34.799 32.4563 34.6349 32.5659 34.3355C32.6058 34.2197 32.6058 34.0845 32.5659 33.9686L32.2867 33.1672C32.1272 32.6941 32.1272 32.192 32.2867 31.7189L32.5659 30.9175ZM31.0802 33.2541C30.5318 33.1286 29.9535 33.1286 29.4051 33.2541C29.5347 32.7231 29.5347 32.1631 29.4051 31.632C29.9535 31.7575 30.5318 31.7575 31.0802 31.632C30.9406 32.1631 30.9406 32.7231 31.0802 33.2541Z" fill="url(#paint7_linear_279_14764)"/>
<path d="M36.714 6.60453C34.8593 6.60453 33.0944 7.35768 31.6586 8.74811C30.7612 3.67884 27.1716 0 22.9139 0C17.9682 0 13.9498 5.03065 13.9498 11.2103C13.9498 13.9236 14.7275 16.5403 16.1534 18.5777C17.4397 20.4219 19.1647 21.6772 21.0592 22.1793L20.431 24.0235C20.3313 24.3228 20.5008 24.6511 20.8099 24.7573C20.8698 24.7767 20.9296 24.7863 20.9994 24.7863H22.3355C22.4452 25.8967 23.0335 26.5243 23.5221 27.0458C24.0207 27.5768 24.4095 27.992 24.4095 28.8804C24.4095 29.7687 24.0207 30.1839 23.5221 30.7149C22.9837 31.2846 22.3156 31.9895 22.3156 33.322C22.3156 34.6545 22.9837 35.369 23.5221 35.9387C24.0207 36.4698 24.4095 36.885 24.4095 37.7733C24.4095 38.6616 24.0207 39.0768 23.5221 39.6079C22.9837 40.1776 22.3156 40.8824 22.3156 42.2246C22.3156 42.5432 22.5848 42.8039 22.9139 42.8039C23.2429 42.8039 23.5121 42.5432 23.5121 42.2246C23.5121 41.3363 23.901 40.9211 24.3996 40.39C24.938 39.8203 25.6061 39.1154 25.6061 37.783C25.6061 36.4505 24.938 35.7359 24.3996 35.1662C23.901 34.6352 23.5121 34.22 23.5121 33.3317C23.5121 32.4433 23.901 32.0281 24.3996 31.4971C24.938 30.9274 25.6061 30.2225 25.6061 28.89C25.6061 27.5575 24.938 26.843 24.3996 26.283C23.9708 25.8291 23.6218 25.4622 23.5321 24.8056H24.8184C25.1474 24.8056 25.4166 24.5449 25.4166 24.2263C25.4166 24.1683 25.4067 24.1008 25.3867 24.0428L24.7585 22.1889C26.2243 21.8027 27.5903 20.9626 28.7171 19.746C29.5347 23.4152 31.9378 26.2636 34.9291 27.0747L34.3707 28.7259C34.271 29.0252 34.4405 29.3535 34.7496 29.4597C34.8095 29.479 34.8693 29.4887 34.9391 29.4887H36.1257C36.2453 30.4736 36.7738 31.0432 37.2225 31.5164C37.6712 31.9895 38.0302 32.3757 38.0302 33.1675C38.0302 33.9593 37.6712 34.3455 37.2225 34.8186C36.7239 35.3497 36.1057 36.0063 36.1057 37.2519C36.1057 38.4975 36.7239 39.1541 37.2225 39.6851C37.6712 40.1583 38.0302 40.5445 38.0302 41.3363C38.0302 42.128 37.6712 42.5143 37.2225 42.9874C36.7239 43.5185 36.1057 44.1751 36.1057 45.4207C36.1057 45.7393 36.375 46 36.704 46C37.033 46 37.3023 45.7393 37.3023 45.4207C37.3023 44.6289 37.6612 44.2427 38.1099 43.7695C38.6085 43.2385 39.2267 42.5819 39.2267 41.3363C39.2267 40.0907 38.6085 39.4341 38.1099 38.903C37.6612 38.4299 37.3023 38.0437 37.3023 37.2519C37.3023 36.4601 37.6612 36.0739 38.1099 35.6008C38.6085 35.0697 39.2267 34.4131 39.2267 33.1675C39.2267 31.9219 38.6085 31.2653 38.1099 30.7343C37.741 30.348 37.4419 30.0197 37.3422 29.4887H38.4689C38.7979 29.4887 39.0672 29.228 39.0672 28.9093C39.0672 28.8514 39.0572 28.7838 39.0373 28.7259L38.4789 27.0747C42.238 26.0512 45 21.851 45 16.9555C45 11.249 41.2808 6.60453 36.714 6.60453ZM37.6114 26.0802C37.2823 26.1381 37.063 26.4374 37.1228 26.7464C37.1228 26.7754 37.1328 26.8044 37.1427 26.8333L37.6513 28.33H35.7867L36.2952 26.8333C36.3949 26.5243 36.2254 26.2057 35.9163 26.0995C35.8864 26.0898 35.8564 26.0802 35.8265 26.0802C32.7355 25.5684 30.2526 22.4689 29.7341 18.5101C30.6615 17.1293 31.2996 15.5844 31.6187 13.9622C31.6785 13.6436 31.4691 13.3442 31.1501 13.2863C30.831 13.2284 30.5119 13.4312 30.4521 13.7401C30.1529 15.2851 29.5347 16.7527 28.6273 18.0466C27.3909 19.775 25.7158 20.895 23.9209 21.1847C23.5919 21.2427 23.3725 21.542 23.4324 21.851C23.4324 21.8799 23.4423 21.9089 23.4523 21.9379L24.0207 23.6373H21.8469L22.4153 21.9379C22.515 21.6289 22.3455 21.3102 22.0364 21.204C22.0065 21.1944 21.9766 21.1847 21.9467 21.1847C18.0778 20.5474 15.1663 16.2603 15.1663 11.2103C15.1663 5.66793 18.6462 1.15869 22.9338 1.15869C24.8383 1.15869 26.673 2.06633 28.0989 3.70781C29.5447 5.37825 30.462 7.66667 30.6615 10.1482C30.6914 10.4958 30.7013 10.8531 30.7013 11.2103C30.7013 11.529 30.9706 11.7897 31.2996 11.7897C31.6287 11.7897 31.8979 11.529 31.8979 11.2103C31.8979 10.9013 31.8879 10.5827 31.868 10.2834C33.1941 8.66121 34.9192 7.76322 36.7339 7.76322C40.6426 7.76322 43.8234 11.8862 43.8234 16.9555C43.8035 21.5806 41.1412 25.5008 37.6114 26.0802Z" fill="url(#paint8_linear_279_14764)"/>
<path d="M18.7758 6.88447C18.4767 6.74929 18.1177 6.87481 17.9781 7.16448C17.1007 9.00872 16.7318 11.1426 16.8913 13.4986C16.9112 13.8076 17.1705 14.0394 17.4896 14.0394C17.4995 14.0394 17.5195 14.0394 17.5294 14.0394C17.8585 14.02 18.1077 13.74 18.0878 13.4214C17.9482 11.2585 18.2773 9.30805 19.065 7.63761C19.2145 7.3576 19.0749 7.01965 18.7758 6.88447Z" fill="url(#paint9_linear_279_14764)"/>
<path d="M20.3313 4.08417C19.9524 4.4028 19.6034 4.75039 19.2843 5.12695C19.0749 5.37799 19.1148 5.74489 19.3741 5.938C19.6333 6.14076 20.0122 6.10214 20.2116 5.8511C20.4809 5.53248 20.77 5.23316 21.0991 4.96281C21.3484 4.76005 21.3882 4.39314 21.1689 4.1421C20.9595 3.90072 20.5905 3.87175 20.3313 4.08417C20.3313 4.08417 20.3313 4.07452 20.3313 4.08417Z" fill="url(#paint10_linear_279_14764)"/>
<path d="M40.7623 4.66328H41.8791V5.74474C41.8791 6.06338 42.1483 6.32409 42.4774 6.32409C42.8064 6.32409 43.0756 6.06338 43.0756 5.74474V4.66328H44.1924C44.5214 4.66328 44.7907 4.40257 44.7907 4.08392C44.7907 3.76528 44.5214 3.50457 44.1924 3.50457H43.0756V2.4231C43.0756 2.10446 42.8064 1.84375 42.4774 1.84375C42.1483 1.84375 41.8791 2.10446 41.8791 2.4231V3.50457H40.7623C40.4333 3.50457 40.1641 3.76528 40.1641 4.08392C40.1641 4.40257 40.4233 4.66328 40.7623 4.66328Z" fill="url(#paint11_linear_279_14764)"/>
<defs>
<linearGradient id="paint0_linear_279_14764" x1="32.0224" y1="17.5063" x2="36.0019" y2="15.1873" gradientUnits="userSpaceOnUse">
<stop stop-color="#713E8B"/>
<stop offset="0.54" stop-color="#D4242F"/>
<stop offset="1" stop-color="#713E8B"/>
</linearGradient>
<linearGradient id="paint1_linear_279_14764" x1="34.0835" y1="11.638" x2="35.2565" y2="9.50452" gradientUnits="userSpaceOnUse">
<stop stop-color="#713E8B"/>
<stop offset="0.54" stop-color="#D4242F"/>
<stop offset="1" stop-color="#713E8B"/>
</linearGradient>
<linearGradient id="paint2_linear_279_14764" x1="6.07195" y1="32.6863" x2="28.2746" y2="15.7807" gradientUnits="userSpaceOnUse">
<stop stop-color="#713E8B"/>
<stop offset="0.54" stop-color="#D4242F"/>
<stop offset="1" stop-color="#713E8B"/>
</linearGradient>
<linearGradient id="paint3_linear_279_14764" x1="3.14904" y1="18.8406" x2="6.74903" y2="16.6125" gradientUnits="userSpaceOnUse">
<stop stop-color="#713E8B"/>
<stop offset="0.54" stop-color="#D4242F"/>
<stop offset="1" stop-color="#713E8B"/>
</linearGradient>
<linearGradient id="paint4_linear_279_14764" x1="4.91242" y1="13.8196" x2="6.00931" y2="11.8075" gradientUnits="userSpaceOnUse">
<stop stop-color="#713E8B"/>
<stop offset="0.54" stop-color="#D4242F"/>
<stop offset="1" stop-color="#713E8B"/>
</linearGradient>
<linearGradient id="paint5_linear_279_14764" x1="13.9889" y1="33.3323" x2="16.5276" y2="28.6202" gradientUnits="userSpaceOnUse">
<stop stop-color="#713E8B"/>
<stop offset="0.54" stop-color="#D4242F"/>
<stop offset="1" stop-color="#713E8B"/>
</linearGradient>
<linearGradient id="paint6_linear_279_14764" x1="9.17649" y1="5.00396" x2="11.2532" y2="1.13534" gradientUnits="userSpaceOnUse">
<stop stop-color="#713E8B"/>
<stop offset="0.54" stop-color="#D4242F"/>
<stop offset="1" stop-color="#713E8B"/>
</linearGradient>
<linearGradient id="paint7_linear_279_14764" x1="29.8696" y1="33.2981" x2="32.4714" y2="28.4721" gradientUnits="userSpaceOnUse">
<stop stop-color="#713E8B"/>
<stop offset="0.54" stop-color="#D4242F"/>
<stop offset="1" stop-color="#713E8B"/>
</linearGradient>
<linearGradient id="paint8_linear_279_14764" x1="27.0894" y1="31.6047" x2="57.7928" y2="-5.64793" gradientUnits="userSpaceOnUse">
<stop stop-color="#713E8B"/>
<stop offset="0.54" stop-color="#D4242F"/>
<stop offset="1" stop-color="#713E8B"/>
</linearGradient>
<linearGradient id="paint9_linear_279_14764" x1="17.8159" y1="11.7833" x2="22.0189" y2="9.40407" gradientUnits="userSpaceOnUse">
<stop stop-color="#713E8B"/>
<stop offset="0.54" stop-color="#D4242F"/>
<stop offset="1" stop-color="#713E8B"/>
</linearGradient>
<linearGradient id="paint10_linear_279_14764" x1="20.065" y1="5.40248" x2="21.2829" y2="3.17687" gradientUnits="userSpaceOnUse">
<stop stop-color="#713E8B"/>
<stop offset="0.54" stop-color="#D4242F"/>
<stop offset="1" stop-color="#713E8B"/>
</linearGradient>
<linearGradient id="paint11_linear_279_14764" x1="42.1219" y1="4.922" x2="44.6661" y2="0.199598" gradientUnits="userSpaceOnUse">
<stop stop-color="#713E8B"/>
<stop offset="0.54" stop-color="#D4242F"/>
<stop offset="1" stop-color="#713E8B"/>
</linearGradient>
</defs>
</svg>
