<svg width="45" height="44" viewBox="0 0 45 44" fill="none" xmlns="http://www.w3.org/2000/svg">
<path d="M38.112 18.789L37.334 18.0307C35.3361 16.0835 32.0991 16.0835 30.1012 18.0307L27.8248 20.2495C27.6039 20.4648 27.6039 20.8206 27.8248 21.0452C28.0457 21.2699 28.4107 21.2606 28.6412 21.0452L30.9177 18.8265C32.4641 17.3193 34.9711 17.3193 36.5175 18.8265L37.2955 19.5848C37.5165 19.8001 37.8815 19.8001 38.112 19.5848C38.3329 19.3695 38.3329 19.0137 38.112 18.789Z" fill="url(#paint0_linear_279_14743)"/>
<path d="M25.0489 7.64863L25.827 8.40693C27.3734 9.91415 27.3734 12.3575 25.827 13.8648L23.5506 16.0835C23.3297 16.2988 23.3297 16.6545 23.5506 16.8792C23.7715 17.1039 24.1365 17.0945 24.367 16.8792L26.6434 14.6605C28.6412 12.7133 28.6412 9.55841 26.6434 7.61119L25.8654 6.85289C25.6445 6.63758 25.2795 6.63758 25.0489 6.85289C24.8184 7.07757 24.8184 7.43332 25.0489 7.64863Z" fill="url(#paint1_linear_279_14743)"/>
<path d="M24.9624 19.7439C25.1834 19.9592 25.5484 19.9592 25.7789 19.7439L33.1749 12.5354C33.3958 12.3107 33.3958 11.9549 33.1653 11.7396C32.9443 11.5243 32.5793 11.5243 32.3584 11.7396L24.9624 18.9481C24.7319 19.1634 24.7319 19.5192 24.9624 19.7439Z" fill="url(#paint2_linear_279_14743)"/>
<path d="M36.1045 23.4886C36.2005 23.1984 36.0372 22.8801 35.7395 22.7771C35.6242 22.7397 35.4898 22.7397 35.3745 22.7771L34.4812 23.0673C33.9433 23.2452 33.3574 23.2452 32.8099 23.0673L31.9166 22.7771C31.6189 22.6835 31.2923 22.8333 31.1866 23.1328C31.1482 23.2452 31.1482 23.3762 31.1866 23.4886L31.4844 24.3592C31.6669 24.8835 31.6669 25.4545 31.4844 25.9881L31.1866 26.8587C31.0906 27.149 31.2539 27.4672 31.5516 27.5702C31.6669 27.6077 31.8014 27.6077 31.9166 27.5702L32.8099 27.28C33.3478 27.1021 33.9337 27.1021 34.4812 27.28L35.3745 27.5702C35.6722 27.6638 35.9988 27.5141 36.1045 27.2145C36.1429 27.1021 36.1429 26.9711 36.1045 26.8587L35.8067 25.9881C35.6242 25.4639 35.6242 24.8928 35.8067 24.3592L36.1045 23.4886ZM34.6541 26.1566C33.9913 25.9788 33.2998 25.9788 32.637 26.1566C32.8195 25.5107 32.8195 24.8367 32.637 24.1907C33.2998 24.3686 33.9913 24.3686 34.6541 24.1907C34.4812 24.8367 34.4812 25.5107 34.6541 26.1566Z" fill="url(#paint3_linear_279_14743)"/>
<path d="M15.972 12.0209C15.8759 12.3112 16.0296 12.6295 16.337 12.7324C16.4523 12.7699 16.5867 12.7699 16.702 12.7324L17.5953 12.4422C18.1332 12.2643 18.7191 12.2643 19.2666 12.4422L20.1599 12.7324C20.4577 12.8261 20.7843 12.6669 20.8899 12.3767C20.9284 12.2643 20.9284 12.1333 20.8899 12.0209L20.5922 11.1503C20.4097 10.626 20.4097 10.055 20.5922 9.52135L20.8899 8.65071C20.986 8.3605 20.8323 8.0422 20.5249 7.93922C20.4097 7.90177 20.2752 7.90177 20.1599 7.93922L19.2666 8.22943C18.7287 8.40731 18.1428 8.40731 17.5953 8.22943L16.702 7.93922C16.4042 7.8456 16.0777 8.00475 15.972 8.29496C15.9336 8.40731 15.9336 8.53837 15.972 8.65071L16.2698 9.52135C16.4523 10.0456 16.4523 10.6167 16.2698 11.1503L15.972 12.0209ZM19.4395 9.35284C19.257 9.9988 19.257 10.6728 19.4395 11.3188C18.7768 11.1409 18.0852 11.1409 17.4224 11.3188C17.6049 10.6728 17.6049 9.9988 17.4224 9.35284C18.0852 9.53072 18.7768 9.53072 19.4395 9.35284Z" fill="url(#paint4_linear_279_14743)"/>
<path d="M34.6925 7.26448C34.875 7.78873 34.875 8.35979 34.6925 8.8934L34.3947 9.76402C34.2987 10.0542 34.462 10.3725 34.7597 10.4755C34.875 10.5129 35.0095 10.5129 35.1247 10.4755L36.018 10.1853C36.5559 10.0074 37.1418 10.0074 37.6893 10.1853L38.5826 10.4755C38.8803 10.5691 39.2069 10.41 39.3125 10.1198C39.351 10.0074 39.351 9.87636 39.3125 9.76402L39.0148 8.8934C38.8323 8.36915 38.8323 7.79809 39.0148 7.26448L39.3125 6.39386C39.4086 6.10365 39.2549 5.78536 38.9475 5.68238C38.8323 5.64494 38.6978 5.64494 38.5826 5.68238L37.6893 5.97259C37.1514 6.15046 36.5655 6.15046 36.018 5.97259L35.1247 5.68238C34.827 5.58877 34.5004 5.73855 34.3947 6.03812C34.3563 6.15046 34.3563 6.28152 34.3947 6.39386L34.6925 7.26448ZM35.8451 7.09598C36.5079 7.27385 37.1994 7.27385 37.8622 7.09598C37.6797 7.74192 37.6797 8.41596 37.8622 9.0619C37.1994 8.88403 36.5079 8.88403 35.8451 9.0619C36.0276 8.41596 36.0276 7.73256 35.8451 7.09598Z" fill="url(#paint5_linear_279_14743)"/>
<path d="M43.923 15.2966L44.8259 14.4166C45.0564 14.2013 45.0564 13.8455 44.8355 13.6209C44.6146 13.3962 44.2496 13.3962 44.019 13.6115C44.019 13.6115 44.019 13.6115 44.0094 13.6209L43.1065 14.5008L42.2037 13.6209C41.9731 13.4056 41.6081 13.4056 41.3872 13.6302C41.1663 13.8455 41.1663 14.2013 41.3872 14.4166L42.2901 15.2966L41.3872 16.1765C41.1567 16.3919 41.1567 16.7476 41.3776 16.9723C41.5985 17.1969 41.9635 17.1969 42.194 16.9816C42.194 16.9816 42.194 16.9816 42.2037 16.9723L43.1065 16.0923L44.0094 16.9723C44.24 17.1876 44.605 17.1876 44.8259 16.9629C45.0468 16.7476 45.0468 16.3919 44.8259 16.1765L43.923 15.2966Z" fill="url(#paint6_linear_279_14743)"/>
<path d="M23.2335 3.85712C24.3285 3.85712 25.2122 2.99582 25.2122 1.92856C25.2122 0.861298 24.3285 0 23.2335 0C22.1385 0 21.2549 0.861298 21.2549 1.92856C21.2549 2.99582 22.1481 3.85712 23.2335 3.85712ZM23.2335 1.12343C23.6946 1.12343 24.0596 1.48855 24.0596 1.92856C24.0596 2.36857 23.685 2.73368 23.2335 2.73368C22.7725 2.73368 22.4075 2.36857 22.4075 1.92856C22.4075 1.48855 22.7821 1.12343 23.2335 1.12343Z" fill="url(#paint7_linear_279_14743)"/>
<path d="M40.1482 23.208C39.0532 23.208 38.1695 24.0693 38.1695 25.1365C38.1695 26.2038 39.0532 27.065 40.1482 27.065C41.2432 27.065 42.1268 26.2038 42.1268 25.1365C42.1268 24.0693 41.2432 23.208 40.1482 23.208ZM40.1482 25.9416C39.6871 25.9416 39.3221 25.5765 39.3221 25.1365C39.3221 24.6872 39.6967 24.3314 40.1482 24.3314C40.6092 24.3314 40.9742 24.6965 40.9742 25.1365C40.9742 25.5859 40.5996 25.9416 40.1482 25.9416Z" fill="url(#paint8_linear_279_14743)"/>
<path d="M29.8995 29.349C28.1514 27.1771 25.6444 24.4716 22.8397 21.738C20.035 19.0044 17.2591 16.561 15.0308 14.8478C13.9358 14.0052 13.0233 13.3873 12.3125 13.0035C11.6401 12.6384 10.8141 12.2827 10.3146 12.7695C10.1994 12.8818 10.1225 13.0316 10.0937 13.1907L0.0275322 43.2605C-0.0685191 43.5601 0.0947682 43.869 0.392527 43.972C0.507789 44.0095 0.632656 44.0095 0.747918 43.972L31.5996 34.1609C31.7629 34.1329 31.9166 34.058 32.0319 33.9456C32.5313 33.4588 32.1663 32.6537 31.7917 31.9984C31.3979 31.3056 30.764 30.4163 29.8995 29.349ZM8.99873 20.0997C9.36373 20.6427 9.79596 21.2699 10.3242 21.9814H8.36479L8.99873 20.0997ZM6.37653 27.9167H8.47045C8.78742 27.9167 9.04676 27.6639 9.04676 27.355C9.04676 27.0461 8.78742 26.7933 8.47045 26.7933H6.75113L7.99019 23.0954H11.1791C12.1876 24.378 13.2442 25.6137 14.3488 26.7933H10.8237C10.5067 26.7933 10.2474 27.0461 10.2474 27.355C10.2474 27.6639 10.5067 27.9167 10.8237 27.9167H15.4342C15.5975 28.0758 15.7607 28.2443 15.9625 28.4409C17.0863 29.5363 18.2869 30.6035 19.5356 31.6146H5.13747L6.37653 27.9167ZM20.7266 36.4358H11.2559C10.939 36.4358 10.6796 36.6886 10.6796 36.9975C10.6796 37.3065 10.939 37.5592 11.2559 37.5592H17.1919L1.47791 42.5584L3.1492 37.5592H7.89414C8.21111 37.5592 8.47045 37.3065 8.47045 36.9975C8.47045 36.6886 8.21111 36.4358 7.89414 36.4358H3.5238L4.76287 32.738H20.9667C22.3499 33.7865 23.5793 34.6103 24.5398 35.2188L20.7266 36.4358ZM25.9614 34.7695C24.4246 33.8426 22.9358 32.8222 21.5142 31.7363C19.8525 30.4724 18.2677 29.1056 16.7693 27.6452C16.5003 27.3831 16.2794 27.1678 16.0777 26.9618C14.5985 25.4546 13.2058 23.8631 11.9187 22.1967C10.7853 20.7363 9.96885 19.5286 9.45978 18.7141L10.7084 14.9882C11.1023 15.6341 11.7362 16.5141 12.7447 17.7499C14.4737 19.8563 16.8749 22.4214 19.5068 24.9865C22.1386 27.5516 24.78 29.892 26.9315 31.5771C28.1898 32.5601 29.1023 33.178 29.765 33.5618L25.9614 34.7695ZM27.5655 30.6222C25.4619 28.9652 22.8878 26.6809 20.3232 24.1907C17.7586 21.7005 15.415 19.1916 13.7245 17.132C12.1684 15.2503 11.5825 14.2673 11.3616 13.7899C11.8515 14.0052 12.8504 14.5763 14.7906 16.0929C16.8942 17.7499 19.4683 20.0341 22.0329 22.5244C24.5975 25.0146 26.9411 27.5235 28.6316 29.5831C30.1877 31.4648 30.7736 32.4478 30.9945 32.9252C30.5046 32.7099 29.4961 32.1388 27.5655 30.6222Z" fill="url(#paint9_linear_279_14743)"/>
<path d="M13.2155 20.0902C13.0138 19.8467 12.6488 19.8187 12.4087 20.0059C12.1589 20.2025 12.1301 20.5582 12.3222 20.7923C12.3222 20.7923 12.3222 20.7923 12.3318 20.8016C13.5228 22.2059 15.002 23.8067 16.5869 25.417C16.8078 25.6416 17.1728 25.651 17.4033 25.4357C17.6338 25.2204 17.6434 24.8646 17.4225 24.6399C15.8473 23.0484 14.3969 21.4757 13.2155 20.0902Z" fill="url(#paint10_linear_279_14743)"/>
<path d="M18.7287 25.9597C18.5078 25.7351 18.1428 25.7351 17.9123 25.9504C17.6817 26.1657 17.6817 26.5215 17.9027 26.7462C18.0948 26.9428 18.2965 27.1394 18.4982 27.336C18.7191 27.5513 19.0841 27.5513 19.3146 27.336C19.5451 27.1206 19.5355 26.7649 19.3146 26.5402C19.1225 26.353 18.9208 26.1563 18.7287 25.9597Z" fill="url(#paint11_linear_279_14743)"/>
<defs>
<linearGradient id="paint0_linear_279_14743" x1="32.1526" y1="19.7582" x2="33.601" y2="13.8002" gradientUnits="userSpaceOnUse">
<stop stop-color="#713E8B"/>
<stop offset="0.54" stop-color="#D4242F"/>
<stop offset="1" stop-color="#713E8B"/>
</linearGradient>
<linearGradient id="paint1_linear_279_14743" x1="25.3979" y1="13.8044" x2="32.3107" y2="8.09507" gradientUnits="userSpaceOnUse">
<stop stop-color="#713E8B"/>
<stop offset="0.54" stop-color="#D4242F"/>
<stop offset="1" stop-color="#713E8B"/>
</linearGradient>
<linearGradient id="paint2_linear_279_14743" x1="28.4076" y1="17.2994" x2="33.1512" y2="8.54503" gradientUnits="userSpaceOnUse">
<stop stop-color="#713E8B"/>
<stop offset="0.54" stop-color="#D4242F"/>
<stop offset="1" stop-color="#713E8B"/>
</linearGradient>
<linearGradient id="paint3_linear_279_14743" x1="33.2633" y1="26.0808" x2="36.0267" y2="20.9843" gradientUnits="userSpaceOnUse">
<stop stop-color="#713E8B"/>
<stop offset="0.54" stop-color="#D4242F"/>
<stop offset="1" stop-color="#713E8B"/>
</linearGradient>
<linearGradient id="paint4_linear_279_14743" x1="18.0487" y1="11.2429" x2="20.8122" y2="6.1464" gradientUnits="userSpaceOnUse">
<stop stop-color="#713E8B"/>
<stop offset="0.54" stop-color="#D4242F"/>
<stop offset="1" stop-color="#713E8B"/>
</linearGradient>
<linearGradient id="paint5_linear_279_14743" x1="36.4714" y1="8.98604" x2="39.2348" y2="3.88962" gradientUnits="userSpaceOnUse">
<stop stop-color="#713E8B"/>
<stop offset="0.54" stop-color="#D4242F"/>
<stop offset="1" stop-color="#713E8B"/>
</linearGradient>
<linearGradient id="paint6_linear_279_14743" x1="42.8156" y1="15.987" x2="44.9188" y2="12.108" gradientUnits="userSpaceOnUse">
<stop stop-color="#713E8B"/>
<stop offset="0.54" stop-color="#D4242F"/>
<stop offset="1" stop-color="#713E8B"/>
</linearGradient>
<linearGradient id="paint7_linear_279_14743" x1="22.9295" y1="2.65006" x2="25.1276" y2="-1.40355" gradientUnits="userSpaceOnUse">
<stop stop-color="#713E8B"/>
<stop offset="0.54" stop-color="#D4242F"/>
<stop offset="1" stop-color="#713E8B"/>
</linearGradient>
<linearGradient id="paint8_linear_279_14743" x1="39.8442" y1="25.858" x2="42.0421" y2="21.8044" gradientUnits="userSpaceOnUse">
<stop stop-color="#713E8B"/>
<stop offset="0.54" stop-color="#D4242F"/>
<stop offset="1" stop-color="#713E8B"/>
</linearGradient>
<linearGradient id="paint9_linear_279_14743" x1="13.658" y1="34.1525" x2="31.5938" y2="1.08615" gradientUnits="userSpaceOnUse">
<stop stop-color="#713E8B"/>
<stop offset="0.54" stop-color="#D4242F"/>
<stop offset="1" stop-color="#713E8B"/>
</linearGradient>
<linearGradient id="paint10_linear_279_14743" x1="14.4759" y1="23.8053" x2="17.872" y2="18.0455" gradientUnits="userSpaceOnUse">
<stop stop-color="#713E8B"/>
<stop offset="0.54" stop-color="#D4242F"/>
<stop offset="1" stop-color="#713E8B"/>
</linearGradient>
<linearGradient id="paint11_linear_279_14743" x1="18.4769" y1="26.9631" x2="19.4518" y2="25.1716" gradientUnits="userSpaceOnUse">
<stop stop-color="#713E8B"/>
<stop offset="0.54" stop-color="#D4242F"/>
<stop offset="1" stop-color="#713E8B"/>
</linearGradient>
</defs>
</svg>
