<svg width="45" height="42" viewBox="0 0 45 42" fill="none" xmlns="http://www.w3.org/2000/svg">
<path d="M40.9451 11.9973H26.2605V8.90426H28.761C29.7168 8.91364 30.4988 8.1638 30.5085 7.23588V1.6965C30.4988 0.759206 29.7265 0.00937291 28.761 0H26.9749C26.6563 0 26.3956 0.253069 26.3956 0.562374C26.3956 0.87168 26.6563 1.12475 26.9749 1.12475H28.761C29.0893 1.12475 29.3499 1.37782 29.3499 1.6965V7.23588C29.3403 7.54519 29.0796 7.78889 28.761 7.77951H16.2294C15.9107 7.78889 15.6501 7.54519 15.6404 7.23588V1.6965C15.6501 1.37782 15.9107 1.12475 16.2294 1.12475H24.8702C25.1888 1.12475 25.4495 0.87168 25.4495 0.562374C25.4495 0.253069 25.1888 0 24.8702 0H16.2294C15.2639 0 14.4819 0.759206 14.4819 1.6965V7.23588C14.4915 8.1638 15.2735 8.91364 16.2294 8.90426H18.5368V11.9973H12.4544V9.7572C12.4544 9.44789 12.2034 9.19482 11.8751 9.18545H6.37202C6.05342 9.18545 5.79275 9.43852 5.79275 9.7572V11.9973H4.04527C1.80541 12.0067 0 13.7688 0 15.9433V38.054C0 40.2285 1.80541 41.9906 4.04527 42H40.9547C43.1946 41.9906 45 40.2285 45 38.054V15.9433C44.9903 13.7688 43.1849 12.0067 40.9451 11.9973ZM19.6953 8.90426H25.1019V11.9973H19.6953V8.90426ZM6.9513 10.3102H11.2959V11.9973H6.9513V10.3102ZM43.8318 35.5233H39.4969C38.4252 35.5046 37.5563 34.661 37.5563 33.6112V32.4303H43.8318V35.5233ZM43.8318 31.3055H37.5563V27.3689H43.8318V31.3055ZM43.8318 21.5577H37.5563V20.4611C37.5563 19.4207 38.4252 18.5677 39.4969 18.5584H43.8318V21.5577ZM43.8318 17.4336H39.4969C37.7784 17.4524 36.3978 18.8021 36.3978 20.4611V23.6197C36.3978 23.929 36.6584 24.1821 36.977 24.1821C37.2956 24.1821 37.5563 23.929 37.5563 23.6197V22.6824H43.8318V26.2441H37.5563V25.5599C37.5563 25.2506 37.2956 24.9975 36.977 24.9975C36.6584 24.9975 36.3978 25.2506 36.3978 25.5599V33.6112C36.3978 35.2609 37.7977 36.6481 39.4969 36.6481H43.8318V38.0446C43.8318 39.6005 42.5477 40.8565 40.9451 40.8659H4.04527C2.44261 40.8565 1.15855 39.6005 1.15855 38.0446V15.9433C1.15855 14.3968 2.44261 13.1314 4.04527 13.1221H40.9547C42.5477 13.1314 43.8415 14.3874 43.8415 15.9433V17.4336H43.8318Z" fill="url(#paint0_linear_889_25393)"/>
<path d="M22.4951 16.7305C19.1739 16.7211 16.0459 18.2208 14.028 20.7796C13.8349 21.0233 13.8832 21.3795 14.1439 21.567C14.3949 21.7544 14.7521 21.7075 14.9549 21.4639C18.1506 17.4335 24.0978 16.693 28.2493 19.7955C32.4008 22.8979 33.1635 28.6717 29.9678 32.702C26.7721 36.7324 20.8249 37.4729 16.6734 34.3704C13.1012 31.6991 11.962 26.947 13.9508 23.0198C14.086 22.7386 13.9605 22.4011 13.6708 22.2699C13.3908 22.1387 13.0529 22.2512 12.9081 22.523C12.184 23.9477 11.8075 25.513 11.8171 27.097C11.8171 32.8239 16.5962 37.4635 22.4951 37.4635C28.3941 37.4635 33.1731 32.8239 33.1731 27.097C33.1731 21.3701 28.3941 16.7305 22.4951 16.7305Z" fill="url(#paint1_linear_889_25393)"/>
<path d="M11.0063 15.9336H4.2481C3.9295 15.9336 3.66882 16.1867 3.66882 16.496V19.9639C3.66882 20.2732 3.9295 20.5263 4.2481 20.5263H11.0063C11.3249 20.5263 11.5856 20.2732 11.5856 19.9639V16.496C11.5856 16.1867 11.3249 15.9336 11.0063 15.9336ZM10.3305 19.4016H4.82738V17.0583H10.3305V19.4016Z" fill="url(#paint2_linear_889_25393)"/>
<path d="M22.4951 33.9672C26.4052 33.9672 29.5719 30.8929 29.5719 27.0969C29.5719 23.3009 26.4052 20.2266 22.4951 20.2266C18.585 20.2266 15.4183 23.3009 15.4183 27.0969C15.4183 30.8835 18.585 33.9578 22.4951 33.9672ZM22.4951 21.3513C25.768 21.3513 28.4133 23.9289 28.4133 27.0969C28.4133 30.2743 25.7583 32.8425 22.4951 32.8425C19.2222 32.8425 16.5768 30.2649 16.5768 27.0969C16.5768 23.9195 19.2318 21.3513 22.4951 21.3513Z" fill="url(#paint3_linear_889_25393)"/>
<path d="M16.9921 2.99889V5.90448C16.9921 6.21378 17.2527 6.46685 17.5713 6.46685H27.419C27.7376 6.46685 27.9983 6.21378 27.9983 5.90448V2.99889C27.9983 2.68959 27.7376 2.43652 27.419 2.43652H17.5713C17.2527 2.43652 16.9921 2.68959 16.9921 2.99889ZM18.1506 3.56127H26.8398V5.34211H18.1506V3.56127Z" fill="url(#paint4_linear_889_25393)"/>
<path d="M5.62862 34.7168C4.64386 34.7168 3.84253 35.4948 3.84253 36.4508C3.84253 37.4069 4.64386 38.1848 5.62862 38.1848C6.61339 38.1848 7.41472 37.4069 7.40506 36.4508C7.41472 35.4854 6.61339 34.7168 5.62862 34.7168ZM5.62862 37.0507C5.28106 37.0507 5.00108 36.7789 5.01073 36.4414C5.02039 36.104 5.29071 35.8322 5.63828 35.8322C5.98584 35.8322 6.25617 36.104 6.25617 36.4414C6.25617 36.7789 5.97619 37.0507 5.62862 37.0507Z" fill="url(#paint5_linear_889_25393)"/>
<defs>
<linearGradient id="paint0_linear_889_25393" x1="19.0428" y1="28.8564" x2="42.403" y2="-16.1322" gradientUnits="userSpaceOnUse">
<stop stop-color="#713E8B"/>
<stop offset="0.54" stop-color="#D4242F"/>
<stop offset="1" stop-color="#713E8B"/>
</linearGradient>
<linearGradient id="paint1_linear_889_25393" x1="20.8543" y1="30.9752" x2="32.6439" y2="9.14678" gradientUnits="userSpaceOnUse">
<stop stop-color="#713E8B"/>
<stop offset="0.54" stop-color="#D4242F"/>
<stop offset="1" stop-color="#713E8B"/>
</linearGradient>
<linearGradient id="paint2_linear_889_25393" x1="7.01899" y1="19.0891" x2="8.84466" y2="13.4324" gradientUnits="userSpaceOnUse">
<stop stop-color="#713E8B"/>
<stop offset="0.54" stop-color="#D4242F"/>
<stop offset="1" stop-color="#713E8B"/>
</linearGradient>
<linearGradient id="paint3_linear_889_25393" x1="21.4077" y1="29.6672" x2="29.2212" y2="15.2005" gradientUnits="userSpaceOnUse">
<stop stop-color="#713E8B"/>
<stop offset="0.54" stop-color="#D4242F"/>
<stop offset="1" stop-color="#713E8B"/>
</linearGradient>
<linearGradient id="paint4_linear_889_25393" x1="21.6496" y1="5.20559" x2="22.7217" y2="-0.0570736" gradientUnits="userSpaceOnUse">
<stop stop-color="#713E8B"/>
<stop offset="0.54" stop-color="#D4242F"/>
<stop offset="1" stop-color="#713E8B"/>
</linearGradient>
<linearGradient id="paint5_linear_889_25393" x1="5.35014" y1="37.0995" x2="7.32512" y2="33.4527" gradientUnits="userSpaceOnUse">
<stop stop-color="#713E8B"/>
<stop offset="0.54" stop-color="#D4242F"/>
<stop offset="1" stop-color="#713E8B"/>
</linearGradient>
</defs>
</svg>
