<svg width="45" height="51" viewBox="0 0 45 51" fill="none" xmlns="http://www.w3.org/2000/svg">
<path d="M41.1185 18.0625H36.4692V7.23563C36.4585 7.02313 36.3519 6.83188 36.1813 6.715C36.0107 6.59813 35.7974 6.56625 35.6054 6.63L32.8436 7.61812V0.669375C32.8329 0.308125 32.5344 0.010625 32.1718 0H12.8282C12.4656 0.010625 12.1671 0.308125 12.1564 0.669375V14.9281L2.99645 18.2006C1.24763 18.5938 0.0106635 20.145 0 21.93V47.1431C0.021327 49.2681 1.74882 50.9894 3.88152 51H41.1185C43.2512 50.9894 44.9787 49.2681 45 47.1431V21.93C44.9787 19.805 43.2512 18.0838 41.1185 18.0625ZM32.8436 8.9675L35.1896 8.13875V18.0625H32.8436V8.9675ZM13.436 1.275H31.564V18.0625H30.2844V7.84125C30.295 7.50125 30.0284 7.225 29.6979 7.20375C28.2903 7.14 27.3732 5.88625 27.3412 4.04812C27.3412 3.6975 27.064 3.41063 26.7121 3.4H18.2986C17.9467 3.41063 17.6588 3.6975 17.6588 4.04812C17.6268 5.91813 16.7417 7.12937 15.3128 7.19312C14.9716 7.21437 14.7156 7.50125 14.7156 7.84125V11.475C14.7156 11.8256 15.0036 12.1125 15.3555 12.1125C15.7073 12.1125 15.9953 11.8256 15.9953 11.475V8.40438C17.5948 8.06438 18.6718 6.69375 18.8957 4.675H26.1043C26.3495 6.90625 27.6185 8.08563 29.0047 8.40438V18.0625H26.3069C26.4348 17.6906 26.4882 17.2975 26.4882 16.9044C26.4882 14.7156 24.7073 12.9306 22.5 12.9306C20.2927 12.9306 18.5118 14.705 18.5118 16.9044C18.5118 17.2975 18.5652 17.6906 18.6931 18.0625H15.9953V14.1631C15.9953 13.8125 15.7073 13.5256 15.3555 13.5256C15.0036 13.5256 14.7156 13.8125 14.7156 14.1631V18.0625H13.436V1.275ZM25.2085 16.9044C25.2192 17.3081 25.1232 17.7013 24.9419 18.0625H20.0687C19.8874 17.7013 19.7915 17.3081 19.7915 16.9044C19.7915 15.4169 20.9964 14.2056 22.5 14.2056C24.0036 14.2056 25.2085 15.4169 25.2085 16.9044ZM12.1564 16.2881V18.0625H7.09123L12.1564 16.2881ZM43.7204 27.625H41.9396C41.5877 27.625 41.2998 27.9119 41.2998 28.2625C41.2998 28.6131 41.5877 28.9 41.9396 28.9H43.7204V40.1625H35.8827C33.91 40.1625 32.3104 38.5688 32.3104 36.6031C32.3104 36.5925 32.3104 36.5819 32.3104 36.5606V32.5125C32.2891 30.5363 33.878 28.9213 35.8614 28.9C35.872 28.9 35.8827 28.9 35.8934 28.9H39.455C39.8069 28.9 40.0948 28.6131 40.0948 28.2625C40.0948 27.9119 39.8069 27.625 39.455 27.625H35.8827C33.1955 27.6356 31.0201 29.8031 31.0308 32.4806C31.0308 32.4913 31.0308 32.5019 31.0308 32.5019V36.5606C31.0095 39.2275 33.1742 41.4163 35.8507 41.4269C35.8614 41.4269 35.872 41.4269 35.8827 41.4269H43.7204V47.1325C43.6991 48.5563 42.5474 49.7038 41.1185 49.7144H3.88152C2.45261 49.7144 1.30095 48.5669 1.27962 47.1431V21.93C1.29028 20.7187 2.14336 19.6775 3.32701 19.4119C3.50829 19.3694 3.68957 19.3375 3.88152 19.3375H41.1185C42.5474 19.3588 43.6991 20.5062 43.7204 21.93V27.625V27.625Z" fill="url(#paint0_linear_279_14726)"/>
<path d="M35.5094 31.875C35.1575 31.875 34.8696 32.1619 34.8696 32.5125V36.5713C34.8696 36.9219 35.1575 37.2088 35.5094 37.2088C35.8613 37.2088 36.1493 36.9219 36.1493 36.5713V32.5125C36.1493 32.1619 35.8613 31.875 35.5094 31.875Z" fill="url(#paint1_linear_279_14726)"/>
<path d="M38.7085 31.875C38.3566 31.875 38.0687 32.1619 38.0687 32.5125V36.5713C38.0687 36.9219 38.3566 37.2088 38.7085 37.2088C39.0604 37.2088 39.3483 36.9219 39.3483 36.5713V32.5125C39.3483 32.1619 39.0604 31.875 38.7085 31.875Z" fill="url(#paint2_linear_279_14726)"/>
<defs>
<linearGradient id="paint0_linear_279_14726" x1="19.0428" y1="35.0399" x2="50.3341" y2="-14.5884" gradientUnits="userSpaceOnUse">
<stop stop-color="#713E8B"/>
<stop offset="0.54" stop-color="#D4242F"/>
<stop offset="1" stop-color="#713E8B"/>
</linearGradient>
<linearGradient id="paint1_linear_279_14726" x1="35.4111" y1="35.5396" x2="38.0487" y2="34.4022" gradientUnits="userSpaceOnUse">
<stop stop-color="#713E8B"/>
<stop offset="0.54" stop-color="#D4242F"/>
<stop offset="1" stop-color="#713E8B"/>
</linearGradient>
<linearGradient id="paint2_linear_279_14726" x1="38.6102" y1="35.5396" x2="41.2478" y2="34.4022" gradientUnits="userSpaceOnUse">
<stop stop-color="#713E8B"/>
<stop offset="0.54" stop-color="#D4242F"/>
<stop offset="1" stop-color="#713E8B"/>
</linearGradient>
</defs>
</svg>
