<svg width="37" height="43" viewBox="0 0 37 43" fill="none" xmlns="http://www.w3.org/2000/svg">
<path d="M32.75 11.3251C32.75 11.4183 32.7466 11.5125 32.7399 11.6052L34.1424 11.7073C34.1516 11.5808 34.1562 11.4524 34.1562 11.3251V10.25H32.75V11.3251Z" fill="url(#paint0_linear_279_14876)"/>
<path d="M32.75 6.36248V8.84372H34.1562V6.36248C34.156 5.42208 33.9044 4.49885 33.4275 3.68835C32.9506 2.87785 32.2657 2.20955 31.4438 1.75262L28.8727 0.324219L28.1898 1.55354L30.7609 2.98194C31.3636 3.31702 31.8658 3.8071 32.2156 4.40146C32.5653 4.99583 32.7498 5.67286 32.75 6.36248V6.36248Z" fill="url(#paint1_linear_279_14876)"/>
<path d="M18.5469 13.4767L20.0938 14.336V27.8285C20.0937 27.95 20.1252 28.0693 20.185 28.175C20.2448 28.2806 20.331 28.369 20.4351 28.4315L23.9507 30.5408C24.06 30.6064 24.1851 30.641 24.3125 30.641C24.4399 30.641 24.565 30.6064 24.6743 30.5408L28.1899 28.4315C28.294 28.369 28.3802 28.2806 28.44 28.175C28.4998 28.0693 28.5313 27.95 28.5312 27.8285V25.7192C28.5313 25.6268 28.5131 25.5354 28.4777 25.4501C28.4424 25.3648 28.3906 25.2873 28.3253 25.222L27.4162 24.3129L28.3253 23.4039C28.3906 23.3386 28.4424 23.261 28.4778 23.1757C28.5131 23.0904 28.5313 22.999 28.5313 22.9067C28.5313 22.8143 28.5131 22.7229 28.4778 22.6376C28.4424 22.5523 28.3906 22.4748 28.3253 22.4095L27.4162 21.5004L28.3253 20.5914C28.3906 20.5261 28.4424 20.4485 28.4778 20.3632C28.5131 20.2779 28.5313 20.1865 28.5313 20.0942C28.5313 20.0018 28.5131 19.9104 28.4778 19.8251C28.4424 19.7398 28.3906 19.6623 28.3253 19.597L27.4162 18.6879L28.3253 17.7789C28.3906 17.7136 28.4424 17.636 28.4777 17.5507C28.5131 17.4654 28.5313 17.374 28.5312 17.2817V14.3359L30.0781 13.4767C30.4616 13.2634 30.7812 12.9516 31.0037 12.5733C31.2262 12.1951 31.3436 11.7643 31.3438 11.3255V6.36292C31.3436 5.92408 31.2262 5.49325 31.0037 5.11502C30.7812 4.73678 30.4617 4.42489 30.0781 4.21162L25.5078 1.67228C25.1426 1.46775 24.7311 1.36035 24.3125 1.36035C23.8939 1.36035 23.4824 1.46775 23.1172 1.67228L18.5469 4.21135C18.1633 4.42465 17.8437 4.73658 17.6212 5.11487C17.3987 5.49315 17.2813 5.92404 17.2812 6.36292V11.3255C17.2814 11.7643 17.3988 12.1951 17.6213 12.5733C17.8438 12.9516 18.1634 13.2634 18.5469 13.4767V13.4767ZM27.125 16.9905L25.9247 18.1907C25.8594 18.256 25.8076 18.3335 25.7722 18.4188C25.7369 18.5041 25.7187 18.5956 25.7187 18.6879C25.7187 18.7802 25.7369 18.8717 25.7722 18.957C25.8076 19.0423 25.8594 19.1198 25.9247 19.1851L26.8338 20.0942L25.9247 21.0032C25.8594 21.0685 25.8076 21.146 25.7722 21.2313C25.7369 21.3166 25.7187 21.4081 25.7187 21.5004C25.7187 21.5927 25.7369 21.6842 25.7722 21.7695C25.8076 21.8548 25.8594 21.9323 25.9247 21.9976L26.8338 22.9067L25.9247 23.8157C25.8594 23.881 25.8076 23.9585 25.7722 24.0438C25.7369 24.1291 25.7187 24.2206 25.7187 24.3129C25.7187 24.4052 25.7369 24.4967 25.7722 24.582C25.8076 24.6673 25.8594 24.7448 25.9247 24.8101L27.125 26.0103V27.4305L24.3125 29.118L21.5 27.4305V15.117L22.9062 15.8983V23.6098H24.3125V16.3277C24.731 16.3272 25.1424 16.2198 25.5078 16.0158L27.125 15.1172V16.9905ZM18.6875 6.36292C18.6876 6.17483 18.7379 5.99018 18.8333 5.82807C18.9286 5.66596 19.0656 5.53228 19.23 5.44086L23.8003 2.90187C23.9567 2.81422 24.1331 2.76819 24.3125 2.76819C24.4918 2.76819 24.6682 2.81422 24.8246 2.90187L29.395 5.44086C29.5593 5.53226 29.6963 5.66594 29.7917 5.82805C29.8871 5.99017 29.9374 6.17482 29.9375 6.36292V11.3255C29.9374 11.5136 29.8871 11.6982 29.7917 11.8603C29.6964 12.0224 29.5594 12.1561 29.395 12.2475L24.8247 14.7864C24.6683 14.8741 24.4919 14.9201 24.3125 14.9201C24.1332 14.9201 23.9568 14.8741 23.8004 14.7864L19.23 12.2475C19.0657 12.1561 18.9287 12.0224 18.8333 11.8603C18.7379 11.6982 18.6876 11.5136 18.6875 11.3255V6.36292Z" fill="url(#paint2_linear_279_14876)"/>
<path d="M24.3125 8.84375C24.7297 8.84375 25.1375 8.72003 25.4844 8.48825C25.8313 8.25647 26.1017 7.92703 26.2613 7.5416C26.421 7.15616 26.4627 6.73203 26.3814 6.32286C26.3 5.91368 26.0991 5.53782 25.8041 5.24282C25.5091 4.94782 25.1332 4.74692 24.724 4.66553C24.3148 4.58414 23.8907 4.62591 23.5053 4.78557C23.1198 4.94522 22.7904 5.21558 22.5586 5.56247C22.3268 5.90935 22.2031 6.31718 22.2031 6.73437C22.2038 7.29361 22.4262 7.82976 22.8217 8.22521C23.2171 8.62065 23.7533 8.8431 24.3125 8.84375V8.84375ZM24.3125 6.03125C24.4516 6.03125 24.5875 6.07249 24.7031 6.14975C24.8188 6.22701 24.9089 6.33682 24.9621 6.4653C25.0153 6.59378 25.0292 6.73515 25.0021 6.87155C24.975 7.00794 24.908 7.13322 24.8097 7.23156C24.7114 7.32989 24.5861 7.39686 24.4497 7.42399C24.3133 7.45112 24.1719 7.43719 24.0434 7.38398C23.9149 7.33076 23.8051 7.24064 23.7279 7.12501C23.6506 7.00938 23.6094 6.87344 23.6094 6.73437C23.6096 6.54796 23.6837 6.36924 23.8155 6.23742C23.9474 6.10561 24.1261 6.03146 24.3125 6.03125Z" fill="url(#paint3_linear_279_14876)"/>
<path d="M22.2031 10.25H26.4219V11.6562H22.2031V10.25Z" fill="url(#paint4_linear_279_14876)"/>
<path d="M22.9062 25.0156H24.3125V26.4219H22.9062V25.0156Z" fill="url(#paint5_linear_279_14876)"/>
<path d="M36.7864 34.2636C36.6619 33.9424 36.4739 33.6496 36.2336 33.4028C35.9933 33.156 35.7056 32.9603 35.3879 32.8273C35.0758 32.6951 34.7403 32.6273 34.4014 32.6279C34.0625 32.6284 33.7273 32.6974 33.4157 32.8307L28.8699 34.7609C28.9051 34.4182 28.8681 34.0719 28.7611 33.7445C28.6542 33.417 28.4797 33.1157 28.249 32.8599C28.0182 32.6041 27.7364 32.3996 27.4217 32.2595C27.107 32.1195 26.7663 32.047 26.4219 32.0469H20.9677C20.4161 32.0462 19.8722 31.9178 19.3785 31.6717C17.0965 30.5341 14.5821 29.9405 12.0322 29.9375H10.25C10.25 29.751 10.1759 29.5722 10.0441 29.4403C9.9122 29.3085 9.73336 29.2344 9.54688 29.2344H0.40625V30.6406H8.84375V39.0781H0.40625V40.4844H9.54688C9.73336 40.4844 9.9122 40.4103 10.0441 40.2784C10.1759 40.1466 10.25 39.9677 10.25 39.7813V39.5132L15.4995 41.6929C18.3613 42.8612 21.5605 42.8966 24.4473 41.7918L35.309 37.6501C35.6275 37.5291 35.9185 37.3457 36.1651 37.1107C36.4117 36.8757 36.6089 36.5938 36.7451 36.2815C36.886 35.9649 36.9622 35.6232 36.9693 35.2767C36.9764 34.9302 36.9142 34.5857 36.7864 34.2636V34.2636ZM35.4586 35.7138C35.3971 35.8556 35.3079 35.9838 35.1962 36.0908C35.0846 36.1977 34.9526 36.2813 34.8082 36.3366L23.9463 40.4781C21.3937 41.4554 18.5649 41.4248 16.0341 40.3924L10.25 37.9904V31.3438H12.0322C14.3638 31.3465 16.6629 31.8893 18.7496 32.9295C19.4386 33.2729 20.1978 33.4522 20.9677 33.4531H26.4219C26.6976 33.4535 26.9622 33.5619 27.1589 33.755C27.3556 33.9482 27.4689 34.2108 27.4743 34.4864C27.4797 34.7621 27.377 35.0289 27.188 35.2296C26.999 35.4304 26.7389 35.5491 26.4634 35.5604C26.4351 35.5612 26.4069 35.5625 26.3785 35.5625H17.9844V36.9688H26.3785C26.393 36.9688 26.4074 36.9678 26.4219 36.9677V36.9688C26.4709 36.9688 26.5195 36.9669 26.5679 36.9641C27.0907 36.9423 27.6053 36.8261 28.0869 36.6213L33.9647 34.1252C34.1035 34.0659 34.2529 34.0352 34.4038 34.035C34.5548 34.0348 34.7042 34.065 34.8432 34.1239C34.9876 34.1847 35.1182 34.2739 35.2272 34.3864C35.3363 34.4988 35.4215 34.6322 35.4778 34.7783C35.537 34.9277 35.5658 35.0873 35.5626 35.2479C35.5593 35.4086 35.5239 35.5669 35.4586 35.7137V35.7138Z" fill="url(#paint6_linear_279_14876)"/>
<path d="M6.03125 36.2656H7.4375V37.6719H6.03125V36.2656Z" fill="url(#paint7_linear_279_14876)"/>
<path d="M17.2812 15.875H18.6875V25.0156H17.2812V15.875Z" fill="url(#paint8_linear_279_14876)"/>
<defs>
<linearGradient id="paint0_linear_279_14876" x1="33.3393" y1="11.2513" x2="34.1937" y2="9.7585" gradientUnits="userSpaceOnUse">
<stop stop-color="#713E8B"/>
<stop offset="0.54" stop-color="#D4242F"/>
<stop offset="1" stop-color="#713E8B"/>
</linearGradient>
<linearGradient id="paint1_linear_279_14876" x1="30.7146" y1="6.17761" x2="36.3576" y2="-0.925864" gradientUnits="userSpaceOnUse">
<stop stop-color="#713E8B"/>
<stop offset="0.54" stop-color="#D4242F"/>
<stop offset="1" stop-color="#713E8B"/>
</linearGradient>
<linearGradient id="paint2_linear_279_14876" x1="23.2321" y1="21.4779" x2="42.9291" y2="4.47416" gradientUnits="userSpaceOnUse">
<stop stop-color="#713E8B"/>
<stop offset="0.54" stop-color="#D4242F"/>
<stop offset="1" stop-color="#713E8B"/>
</linearGradient>
<linearGradient id="paint3_linear_279_14876" x1="23.9884" y1="7.52352" x2="26.4259" y2="3.14224" gradientUnits="userSpaceOnUse">
<stop stop-color="#713E8B"/>
<stop offset="0.54" stop-color="#D4242F"/>
<stop offset="1" stop-color="#713E8B"/>
</linearGradient>
<linearGradient id="paint4_linear_279_14876" x1="23.9884" y1="11.2162" x2="24.3313" y2="9.36731" gradientUnits="userSpaceOnUse">
<stop stop-color="#713E8B"/>
<stop offset="0.54" stop-color="#D4242F"/>
<stop offset="1" stop-color="#713E8B"/>
</linearGradient>
<linearGradient id="paint5_linear_279_14876" x1="23.5013" y1="25.9818" x2="24.3138" y2="24.5214" gradientUnits="userSpaceOnUse">
<stop stop-color="#713E8B"/>
<stop offset="0.54" stop-color="#D4242F"/>
<stop offset="1" stop-color="#713E8B"/>
</linearGradient>
<linearGradient id="paint6_linear_279_14876" x1="15.879" y1="38.4142" x2="19.4264" y2="20.9648" gradientUnits="userSpaceOnUse">
<stop stop-color="#713E8B"/>
<stop offset="0.54" stop-color="#D4242F"/>
<stop offset="1" stop-color="#713E8B"/>
</linearGradient>
<linearGradient id="paint7_linear_279_14876" x1="6.62634" y1="37.2318" x2="7.43883" y2="35.7714" gradientUnits="userSpaceOnUse">
<stop stop-color="#713E8B"/>
<stop offset="0.54" stop-color="#D4242F"/>
<stop offset="1" stop-color="#713E8B"/>
</linearGradient>
<linearGradient id="paint8_linear_279_14876" x1="17.8763" y1="22.1551" x2="21.0697" y2="21.2721" gradientUnits="userSpaceOnUse">
<stop stop-color="#713E8B"/>
<stop offset="0.54" stop-color="#D4242F"/>
<stop offset="1" stop-color="#713E8B"/>
</linearGradient>
</defs>
</svg>
