<svg width="43" height="43" viewBox="0 0 43 43" fill="none" xmlns="http://www.w3.org/2000/svg">
<path d="M25.543 38.375H23.6094V30.6406H22.2031V38.375H20.7969V25.5241L21.5 25.1223L22.2031 25.5241V29.2344H23.6094V26.3247C24.5017 26.798 25.4991 27.0384 26.5091 27.0236C27.519 27.0089 28.5089 26.7395 29.3871 26.2404L31.3886 25.0967L33.5384 26.018C33.9127 26.1785 34.321 26.2435 34.7266 26.2073C35.1322 26.1711 35.5225 26.0348 35.8625 25.8106C36.2025 25.5864 36.4815 25.2814 36.6746 24.9228C36.8677 24.5642 36.9687 24.1633 36.9688 23.7561V22.3789C36.9683 21.9595 36.8015 21.5573 36.5049 21.2608C36.2083 20.9642 35.8062 20.7973 35.3867 20.7969H30.6406V1.10938C30.6406 0.922895 30.5665 0.744052 30.4347 0.612191C30.3028 0.480329 30.124 0.40625 29.9375 0.40625H13.0625C12.876 0.40625 12.6972 0.480329 12.5653 0.612191C12.4335 0.744052 12.3594 0.922895 12.3594 1.10938V4.625H13.7656V1.8125H20.7969V17.9844H18.8633C18.4438 17.9848 18.0417 18.1517 17.7451 18.4483C17.4485 18.7448 17.2817 19.147 17.2812 19.5664V20.7969H13.7656V6.03125H12.3594V20.7969H7.61328C7.19384 20.7973 6.79172 20.9642 6.49513 21.2608C6.19854 21.5573 6.03172 21.9595 6.03125 22.3789V23.7561C6.03125 24.1633 6.13232 24.5642 6.32539 24.9228C6.51845 25.2814 6.79749 25.5864 7.13748 25.8106C7.47746 26.0348 7.86777 26.1711 8.2734 26.2073C8.67903 26.2435 9.08731 26.1785 9.46162 26.018L11.6114 25.0967L13.6129 26.2404C14.4911 26.7395 15.481 27.0089 16.491 27.0236C17.5009 27.0384 18.4983 26.7979 19.3906 26.3247V38.375H17.457C17.0376 38.3755 16.6355 38.5423 16.3389 38.8389C16.0423 39.1355 15.8755 39.5376 15.875 39.957V41.8906C15.875 42.0771 15.9491 42.2559 16.0809 42.3878C16.2128 42.5197 16.3916 42.5938 16.5781 42.5938H26.4219C26.6084 42.5938 26.7872 42.5197 26.9191 42.3878C27.0509 42.2559 27.125 42.0771 27.125 41.8906V39.957C27.1245 39.5376 26.9577 39.1355 26.6611 38.8389C26.3645 38.5423 25.9624 38.3755 25.543 38.375ZM22.2031 1.8125H29.2344V20.7969H25.7188V19.5664C25.7183 19.147 25.5515 18.7448 25.2549 18.4483C24.9583 18.1517 24.5562 17.9848 24.1367 17.9844H22.2031V1.8125ZM18.6875 19.5664C18.6875 19.5198 18.7061 19.4751 18.739 19.4422C18.772 19.4092 18.8167 19.3907 18.8633 19.3906H24.1367C24.1833 19.3907 24.228 19.4092 24.261 19.4422C24.2939 19.4751 24.3125 19.5198 24.3125 19.5664V20.7969H18.6875V19.5664ZM14.3106 25.0195L12.0051 23.702C11.9107 23.648 11.805 23.6167 11.6964 23.6105C11.5878 23.6043 11.4792 23.6233 11.3793 23.6662L8.90765 24.7255C8.74724 24.7942 8.57226 24.8221 8.39843 24.8066C8.22459 24.791 8.05733 24.7326 7.91162 24.6366C7.76592 24.5405 7.64633 24.4098 7.56358 24.2561C7.48084 24.1024 7.43751 23.9306 7.4375 23.7561V22.3789C7.43755 22.3323 7.45608 22.2876 7.48904 22.2547C7.52199 22.2217 7.56668 22.2032 7.61328 22.2031H35.3867C35.4333 22.2032 35.478 22.2217 35.511 22.2547C35.5439 22.2876 35.5625 22.3323 35.5625 22.3789V23.7561C35.5625 23.9306 35.5192 24.1024 35.4364 24.2561C35.3537 24.4098 35.2341 24.5405 35.0884 24.6366C34.9427 24.7327 34.7754 24.7911 34.6016 24.8066C34.4277 24.8221 34.2528 24.7943 34.0923 24.7255L31.6207 23.6662C31.5208 23.6234 31.4122 23.6043 31.3036 23.6105C31.195 23.6167 31.0893 23.6481 30.9949 23.702L28.6894 25.0195C27.9982 25.4124 27.2169 25.6189 26.4219 25.6189C25.6269 25.6189 24.8455 25.4124 24.1544 25.0195L21.8489 23.702C21.7426 23.6413 21.6224 23.6094 21.5 23.6094C21.3776 23.6094 21.2574 23.6413 21.1511 23.702L18.8456 25.0195C18.1545 25.4124 17.3731 25.6189 16.5781 25.6189C15.7831 25.6189 15.0018 25.4123 14.3106 25.0195ZM25.7188 41.1875H17.2812V39.957C17.2813 39.9104 17.2998 39.8657 17.3328 39.8328C17.3657 39.7998 17.4104 39.7813 17.457 39.7812H25.543C25.5896 39.7813 25.6343 39.7998 25.6672 39.8328C25.7002 39.8657 25.7187 39.9104 25.7188 39.957V41.1875Z" fill="url(#paint0_linear_302_1)"/>
<path d="M41.8906 16.5781H40.8359C40.1835 16.5789 39.558 16.8384 39.0966 17.2997C38.6352 17.7611 38.3757 18.3866 38.375 19.0391V22.5547C38.3757 23.2071 38.6352 23.8327 39.0966 24.294C39.558 24.7554 40.1835 25.0149 40.8359 25.0156H41.1875V26.2271L39.3832 29.2344H29.4102C28.9907 29.2348 28.5886 29.4017 28.292 29.6983C27.9954 29.9948 27.8286 30.397 27.8281 30.8164V32.75C27.8281 32.9365 27.9022 33.1153 28.0341 33.2472C28.1659 33.379 28.3448 33.4531 28.5312 33.4531H33.7605L30.1907 41.1875H28.5312V42.5938H30.6406C30.7749 42.5938 30.9064 42.5553 31.0196 42.4829C31.1327 42.4105 31.2228 42.3072 31.279 42.1853L35.3093 33.4531H37.8156L39.7993 42.0487C39.835 42.2036 39.9222 42.3419 40.0467 42.4409C40.1711 42.5399 40.3254 42.5937 40.4844 42.5938H42.5938V41.1875H41.0437L39.0781 32.67V30.8164C39.0781 30.7577 39.0749 30.699 39.0684 30.6406H39.7812C39.9027 30.6406 40.022 30.6092 40.1277 30.5493C40.2333 30.4895 40.3217 30.4034 40.3842 30.2992L42.4936 26.7836C42.5591 26.6743 42.5938 26.5493 42.5938 26.4219V17.2812C42.5938 17.0948 42.5197 16.9159 42.3878 16.7841C42.2559 16.6522 42.0771 16.5781 41.8906 16.5781ZM37.6719 30.8164V32.0469H29.2344V30.8164C29.2344 30.7698 29.253 30.7251 29.2859 30.6922C29.3189 30.6592 29.3636 30.6407 29.4102 30.6406H37.4961C37.5427 30.6407 37.5874 30.6592 37.6203 30.6922C37.6533 30.7251 37.6718 30.7698 37.6719 30.8164ZM39.7812 22.5547V19.0391C39.7816 18.7594 39.8928 18.4914 40.0905 18.2936C40.2882 18.0959 40.5563 17.9847 40.8359 17.9844H41.1875V23.6094H40.8359C40.5563 23.6091 40.2882 23.4978 40.0905 23.3001C39.8928 23.1024 39.7816 22.8343 39.7812 22.5547V22.5547Z" fill="url(#paint1_linear_302_1)"/>
<path d="M13.5898 29.2344H3.61683L1.8125 26.2271V25.0156H2.16406C2.81652 25.0149 3.44204 24.7554 3.9034 24.294C4.36476 23.8327 4.62427 23.2071 4.625 22.5547V19.0391C4.62427 18.3866 4.36476 17.7611 3.9034 17.2997C3.44204 16.8384 2.81652 16.5789 2.16406 16.5781H1.10938C0.922895 16.5781 0.744052 16.6522 0.612191 16.7841C0.480329 16.9159 0.40625 17.0948 0.40625 17.2812V26.4219C0.406245 26.5493 0.440878 26.6743 0.506445 26.7836L2.61582 30.2992C2.67829 30.4034 2.76665 30.4895 2.87231 30.5493C2.97797 30.6092 3.09733 30.6406 3.21875 30.6406H3.9316C3.92512 30.699 3.92187 30.7577 3.92188 30.8164V32.67L1.95626 41.1875H0.40625V42.5938H2.51562C2.67462 42.5937 2.82892 42.5399 2.95335 42.4409C3.07777 42.3419 3.16497 42.2036 3.20072 42.0487L5.18436 33.4531H7.69074L11.721 42.1853C11.7772 42.3072 11.8673 42.4105 11.9804 42.4829C12.0936 42.5553 12.2251 42.5938 12.3594 42.5938H14.4688V41.1875H12.8093L9.23955 33.4531H14.4688C14.6552 33.4531 14.8341 33.379 14.9659 33.2472C15.0978 33.1153 15.1719 32.9365 15.1719 32.75V30.8164C15.1714 30.397 15.0046 29.9948 14.708 29.6983C14.4114 29.4017 14.0093 29.2348 13.5898 29.2344V29.2344ZM1.8125 17.9844H2.16406C2.44369 17.9847 2.71176 18.0959 2.90949 18.2936C3.10721 18.4914 3.21843 18.7594 3.21875 19.0391V22.5547C3.21843 22.8343 3.10721 23.1024 2.90949 23.3001C2.71176 23.4978 2.44369 23.6091 2.16406 23.6094H1.8125V17.9844ZM13.7656 32.0469H5.32812V30.8164C5.32817 30.7698 5.34671 30.7251 5.37966 30.6922C5.41262 30.6592 5.4573 30.6407 5.50391 30.6406H13.5898C13.6364 30.6407 13.6811 30.6592 13.7141 30.6922C13.747 30.7251 13.7656 30.7698 13.7656 30.8164V32.0469Z" fill="url(#paint2_linear_302_1)"/>
<defs>
<linearGradient id="paint0_linear_302_1" x1="19.1232" y1="29.3915" x2="46.7491" y2="-7.02364" gradientUnits="userSpaceOnUse">
<stop stop-color="#713E8B"/>
<stop offset="0.54" stop-color="#D4242F"/>
<stop offset="1" stop-color="#713E8B"/>
</linearGradient>
<linearGradient id="paint1_linear_302_1" x1="34.0766" y1="34.4524" x2="51.7631" y2="16.4087" gradientUnits="userSpaceOnUse">
<stop stop-color="#713E8B"/>
<stop offset="0.54" stop-color="#D4242F"/>
<stop offset="1" stop-color="#713E8B"/>
</linearGradient>
<linearGradient id="paint2_linear_302_1" x1="6.65468" y1="34.4524" x2="24.3412" y2="16.4087" gradientUnits="userSpaceOnUse">
<stop stop-color="#713E8B"/>
<stop offset="0.54" stop-color="#D4242F"/>
<stop offset="1" stop-color="#713E8B"/>
</linearGradient>
</defs>
</svg>
