<svg width="45" height="40" viewBox="0 0 45 40" fill="none" xmlns="http://www.w3.org/2000/svg">
<path d="M13.1985 16.2196C13.4669 16.3498 13.7891 16.2456 13.9143 15.9852L16.2677 11.3836C16.4019 11.1231 16.2945 10.8105 16.0261 10.689C15.7577 10.5674 15.4355 10.6629 15.3103 10.9234L12.9569 15.525C12.8227 15.7768 12.93 16.0893 13.1985 16.2196Z" fill="url(#paint0_linear_301_7)"/>
<path d="M16.205 10.3416C16.4735 10.4719 16.7956 10.3677 16.9209 10.1072L17.2878 9.38653C17.422 9.12605 17.3146 8.81348 17.0551 8.68324C16.7867 8.553 16.4645 8.65719 16.3303 8.90899V8.91767L15.9634 9.63833C15.8292 9.89881 15.9366 10.2114 16.205 10.3416Z" fill="url(#paint1_linear_301_7)"/>
<path d="M42.1813 36.7615H40.9823V32.6983L41.7787 32.4031C44.311 31.4567 45.5727 28.6958 44.5884 26.2388L43.7383 24.1116C44.4542 23.773 44.7763 22.9569 44.49 22.2363C44.1857 21.4636 43.2909 21.0815 42.5035 21.3767L39.8996 22.3491L35.7208 0.426664C35.6671 0.140152 35.3897 -0.0421734 35.0945 0.00991966C35.0587 0.0186018 35.0229 0.027284 34.996 0.0359662L22.7103 4.7938C22.6208 4.82852 22.5492 4.88062 22.4955 4.95007C22.4418 4.88062 22.3613 4.82852 22.2808 4.7938L9.98608 0.0359662C9.70869 -0.0682199 9.39551 0.0620127 9.28813 0.322478C9.27918 0.357207 9.26128 0.383253 9.26128 0.417982L5.08252 22.3491L2.47862 21.3767C1.68224 21.0815 0.796381 21.4636 0.492146 22.2363C0.205806 22.9569 0.536886 23.7643 1.24379 24.1116L0.393716 26.2388C-0.581627 28.6958 0.671108 31.4567 3.20342 32.4031L3.9998 32.6983V36.7615H2.80076C1.25273 36.7615 0 37.9771 0 39.4791C0 39.7656 0.241599 40 0.536886 40H11.212C11.5073 40 11.7489 39.7656 11.7489 39.4791C11.7489 37.9771 10.4961 36.7615 8.9481 36.7615H7.74906V34.0353C8.07119 34.1048 8.40227 34.1309 8.74229 34.1309C10.7735 34.1309 12.5989 32.924 13.3416 31.0834L14.1827 28.9563C14.317 28.991 14.4601 29.0171 14.6033 29.0171C15.2386 29.0171 15.8113 28.635 16.0439 28.062C16.3482 27.2893 15.9545 26.4298 15.167 26.1346L12.5094 25.1361L22.4866 5.63597L32.4727 25.1361L29.824 26.1346C29.0276 26.4298 28.6339 27.298 28.9471 28.062C29.1798 28.635 29.7524 29.0171 30.3878 29.0171C30.5309 29.0171 30.6741 28.9997 30.8083 28.9563L31.6584 31.0834C32.4011 32.924 34.2265 34.1309 36.2577 34.1309C36.5888 34.1309 36.9199 34.0961 37.2509 34.0353V36.7615H36.0519C34.5039 36.7615 33.2511 37.9771 33.2511 39.4791C33.2511 39.7656 33.4927 40 33.788 40H44.4631C44.7584 40 45 39.7656 45 39.4791C44.9821 37.9771 43.7294 36.7615 42.1813 36.7615ZM8.9481 37.8034C9.69974 37.8034 10.3619 38.2722 10.5946 38.9581H1.15431C1.38696 38.2722 2.04912 37.8034 2.80076 37.8034H8.9481ZM5.08252 36.7615V29.9113C5.08252 29.4859 5.44045 29.1386 5.8789 29.1386C6.31736 29.1386 6.67528 29.4859 6.67528 29.9113V36.7615H5.08252ZM14.7733 27.107C15.0149 27.1938 15.1312 27.4543 15.0418 27.6887C14.9702 27.8623 14.8002 27.9752 14.6033 27.9752L5.74468 24.6846C5.46729 24.5805 5.15411 24.7107 5.04673 24.9798C4.93935 25.249 5.07357 25.5529 5.35096 25.6571L13.1716 28.5916L12.3305 30.7101C11.6146 32.4812 9.6371 33.4536 7.74011 32.9674V29.92C7.74011 28.9216 6.89899 28.1054 5.86995 28.1054C4.84092 28.1054 3.9998 28.9216 3.9998 29.92V31.587L3.58819 31.4307C1.61066 30.6927 0.626367 28.5309 1.38696 26.6121L2.22808 24.4936L3.68662 25.0406C3.96401 25.1448 4.27719 25.0146 4.38457 24.7454C4.49195 24.4763 4.35773 24.1724 4.08033 24.0682L1.75383 23.1913C1.51223 23.1045 1.3959 22.844 1.48538 22.6096C1.57487 22.3752 1.84331 22.2623 2.08491 22.3491L14.7733 27.107ZM11.4983 24.7628L6.09366 22.7398L10.2008 1.24279L21.3323 5.54914L11.4983 24.7628ZM23.6498 5.54914L34.7813 1.24279L38.8795 22.7398L33.4748 24.7628L23.6498 5.54914ZM32.6427 30.7101L31.8016 28.5916L33.6538 27.8971C33.9312 27.7929 34.0654 27.4977 33.967 27.2285C33.8596 26.9594 33.5554 26.8291 33.278 26.9247L30.3878 27.9752C30.1909 27.9752 30.0209 27.8623 29.9493 27.6887C29.8598 27.4543 29.9761 27.1938 30.2177 27.107L42.8972 22.3491C43.1388 22.2623 43.4072 22.3752 43.4967 22.6096C43.5862 22.844 43.4699 23.1045 43.2283 23.1913L34.9513 26.2909C34.6739 26.395 34.5397 26.6902 34.6381 26.9594C34.7455 27.2285 35.0497 27.3588 35.3271 27.2633L42.7272 24.485L43.5683 26.6034C44.3289 28.5222 43.3535 30.684 41.3671 31.422L40.9555 31.5783V29.9113C40.9555 28.9129 40.1143 28.0967 39.0853 28.0967C38.0563 28.0967 37.2152 28.9129 37.2152 29.9113V32.9588C35.3361 33.4536 33.3585 32.4812 32.6427 30.7101ZM39.8996 29.92V36.7702H38.3068V29.92C38.3068 29.4946 38.6647 29.1473 39.1032 29.1473C39.5417 29.1473 39.8996 29.4859 39.8996 29.92ZM34.3876 38.9581C34.6202 38.2722 35.2824 37.8034 36.034 37.8034H42.1813C42.933 37.8034 43.5951 38.2722 43.8278 38.9581H34.3876Z" fill="url(#paint2_linear_301_7)"/>
<path d="M33.457 19.6928L31.1036 15.0913C30.9694 14.8308 30.6473 14.7353 30.3788 14.8655C30.1193 14.9958 30.012 15.2996 30.1372 15.5601L32.4906 20.1616C32.6248 20.4221 32.947 20.5176 33.2154 20.3874C33.4838 20.2571 33.5912 19.9446 33.457 19.6928Z" fill="url(#paint3_linear_301_7)"/>
<path d="M30.4504 13.814L30.0835 13.0934C29.9493 12.833 29.6361 12.7288 29.3677 12.8503C29.0993 12.9806 28.9919 13.2844 29.1171 13.5449V13.5536L29.484 14.2742C29.6182 14.5346 29.9404 14.6301 30.2088 14.4999C30.4683 14.3784 30.5757 14.0658 30.4504 13.814Z" fill="url(#paint4_linear_301_7)"/>
<defs>
<linearGradient id="paint0_linear_301_7" x1="14.3491" y1="14.511" x2="18.1686" y2="10.3393" gradientUnits="userSpaceOnUse">
<stop stop-color="#713E8B"/>
<stop offset="0.54" stop-color="#D4242F"/>
<stop offset="1" stop-color="#713E8B"/>
</linearGradient>
<linearGradient id="paint1_linear_301_7" x1="16.5151" y1="9.84355" x2="17.6373" y2="8.20304" gradientUnits="userSpaceOnUse">
<stop stop-color="#713E8B"/>
<stop offset="0.54" stop-color="#D4242F"/>
<stop offset="1" stop-color="#713E8B"/>
</linearGradient>
<linearGradient id="paint2_linear_301_7" x1="19.0428" y1="27.4823" x2="40.6579" y2="-16.2269" gradientUnits="userSpaceOnUse">
<stop stop-color="#713E8B"/>
<stop offset="0.54" stop-color="#D4242F"/>
<stop offset="1" stop-color="#713E8B"/>
</linearGradient>
<linearGradient id="paint3_linear_301_7" x1="31.5364" y1="18.681" x2="35.3546" y2="14.5056" gradientUnits="userSpaceOnUse">
<stop stop-color="#713E8B"/>
<stop offset="0.54" stop-color="#D4242F"/>
<stop offset="1" stop-color="#713E8B"/>
</linearGradient>
<linearGradient id="paint4_linear_301_7" x1="29.6734" y1="14.0077" x2="30.7853" y2="12.3733" gradientUnits="userSpaceOnUse">
<stop stop-color="#713E8B"/>
<stop offset="0.54" stop-color="#D4242F"/>
<stop offset="1" stop-color="#713E8B"/>
</linearGradient>
</defs>
</svg>
