<svg width="45" height="46" viewBox="0 0 45 46" fill="none" xmlns="http://www.w3.org/2000/svg">
<path d="M22.2523 20.04C21.7377 20.04 21.2442 20.232 20.8871 20.5857L18.5768 22.8088C17.8102 23.5162 17.7787 24.6985 18.5138 25.4361C19.2489 26.1738 20.4776 26.2041 21.2442 25.4968C21.2652 25.4766 21.2862 25.4564 21.3072 25.4361L23.628 23.213C24.3841 22.4855 24.3841 21.3133 23.628 20.5857C23.2499 20.232 22.7564 20.04 22.2523 20.04ZM22.7249 22.3541L20.4146 24.5772C20.1625 24.8399 19.732 24.85 19.4694 24.6075C19.1964 24.365 19.1859 23.9507 19.4379 23.6981C19.4484 23.688 19.4589 23.6779 19.4694 23.6678L21.7902 21.4345C22.0633 21.192 22.4833 21.2021 22.7354 21.4649C22.9664 21.7175 22.9664 22.1116 22.7249 22.3541Z" fill="url(#paint0_linear_241_17028)"/>
<path d="M29.2672 40.0076H28.1015V38.8758C28.1015 38.5424 27.818 38.2695 27.4715 38.2695C27.1249 38.2695 26.8414 38.5424 26.8414 38.8758V40.0076H25.6652C25.3187 40.0076 25.0351 40.2804 25.0351 40.6139C25.0351 40.9474 25.3187 41.2202 25.6652 41.2202H26.8414V42.352C26.8414 42.6854 27.1249 42.9583 27.4715 42.9583C27.818 42.9583 28.1015 42.6854 28.1015 42.352V41.2202H29.2672C29.6137 41.2202 29.8973 40.9474 29.8973 40.6139C29.8973 40.2804 29.6137 40.0076 29.2672 40.0076Z" fill="url(#paint1_linear_241_17028)"/>
<path d="M40.6296 29.8719C39.8525 30.6197 39.8525 31.8424 40.6296 32.5901C41.4067 33.3379 42.6774 33.3379 43.4545 32.5901C44.2316 31.8424 44.2316 30.6298 43.4545 29.8719C42.6879 29.1241 41.4277 29.114 40.6506 29.8517C40.6401 29.8618 40.6401 29.8618 40.6296 29.8719ZM42.5619 31.7312C42.2783 32.0041 41.8058 32.0041 41.5222 31.7312C41.2387 31.4584 41.2387 31.0037 41.5222 30.7308C41.8058 30.458 42.2783 30.458 42.5619 30.7308C42.8454 31.0037 42.8454 31.4483 42.5619 31.7312Z" fill="url(#paint2_linear_241_17028)"/>
<path d="M11.7089 6.09523H12.8745V7.22701C12.8745 7.56048 13.1581 7.83332 13.5046 7.83332C13.8512 7.83332 14.1347 7.56048 14.1347 7.22701V6.09523H15.3109C15.6574 6.09523 15.941 5.82239 15.941 5.48892C15.941 5.15545 15.6574 4.88262 15.3109 4.88262H14.1347V3.75084C14.1347 3.41737 13.8512 3.14453 13.5046 3.14453C13.1581 3.14453 12.8745 3.41737 12.8745 3.75084V4.88262H11.7089C11.3623 4.88262 11.0788 5.15545 11.0788 5.48892C11.0788 5.82239 11.3623 6.09523 11.7089 6.09523Z" fill="url(#paint3_linear_241_17028)"/>
<path d="M6.77331 17.5646C7.87593 17.5646 8.76853 16.7056 8.76853 15.6446C8.76853 14.5835 7.87593 13.7246 6.77331 13.7246C5.67068 13.7246 4.77808 14.5835 4.77808 15.6446C4.77808 16.1498 4.9881 16.645 5.36614 16.9987C5.73369 17.3625 6.24825 17.5646 6.77331 17.5646ZM6.25875 15.1393C6.54228 14.8665 7.01483 14.8665 7.29837 15.1393C7.5819 15.4122 7.5819 15.8669 7.29837 16.1397C7.01483 16.4126 6.54228 16.4126 6.25875 16.1397C6.12223 16.0084 6.04872 15.8265 6.04872 15.6446C6.03822 15.4526 6.11173 15.2707 6.25875 15.1393Z" fill="url(#paint4_linear_241_17028)"/>
<path d="M36.8071 27.851C36.9121 27.5378 36.7441 27.1942 36.408 27.083C36.282 27.0426 36.135 27.0426 36.009 27.083L34.7908 27.4771C34.0242 27.7197 33.1946 27.7197 32.4281 27.4771L31.2099 27.083C30.8844 26.982 30.5273 27.1538 30.4118 27.467C30.3698 27.5883 30.3698 27.7298 30.4118 27.851L30.8214 29.0232C31.0734 29.7609 31.0734 30.5592 30.8214 31.2968L30.4118 32.469C30.3068 32.7823 30.4853 33.1258 30.8109 33.237C30.9369 33.2774 31.0839 33.2774 31.2099 33.237L32.4281 32.8429C33.1946 32.6004 34.0242 32.6004 34.7908 32.8429L36.0195 33.2471C36.345 33.3481 36.7021 33.1865 36.8176 32.8631C36.8596 32.7418 36.8596 32.6004 36.8176 32.4791L36.408 31.3069C36.156 30.5693 36.156 29.771 36.408 29.0333L36.8071 27.851ZM35.2109 31.6909L35.2214 31.7111L35.2004 31.701C34.1713 31.3777 33.0686 31.3777 32.0395 31.701L32.0185 31.7111L32.029 31.6909C32.3651 30.7006 32.3651 29.6396 32.029 28.6493L32.0185 28.6291L32.0395 28.6392C33.0686 28.9626 34.1713 28.9626 35.2004 28.6392L35.2214 28.6291L35.2109 28.6493C34.8643 29.6295 34.8643 30.7006 35.2109 31.6909Z" fill="url(#paint5_linear_241_17028)"/>
<path d="M36.5761 3.07379C34.9589 2.5281 33.2052 2.45737 31.5459 2.87168C31.2099 2.95252 31.0104 3.286 31.0944 3.60936C31.1784 3.93273 31.5249 4.12473 31.861 4.04389C33.2787 3.69021 34.7699 3.75084 36.1561 4.21568C36.4816 4.32684 36.8492 4.16515 36.9647 3.85189C37.0802 3.52852 36.9122 3.18494 36.5761 3.07379Z" fill="url(#paint6_linear_241_17028)"/>
<path d="M38.7079 4.12446C38.4243 3.93246 38.0358 3.99309 37.8258 4.26593C37.6263 4.53877 37.6893 4.91267 37.9728 5.11477C37.9728 5.11477 37.9728 5.11477 37.9833 5.11477C38.2353 5.28656 38.4873 5.47856 38.7184 5.69077C38.9704 5.92319 39.3694 5.90298 39.611 5.66045C39.8525 5.41793 39.8315 5.03393 39.5795 4.80151C39.2959 4.55898 39.0124 4.33667 38.7079 4.12446Z" fill="url(#paint7_linear_241_17028)"/>
<path d="M41.7008 3.17473C37.8783 -0.503519 31.882 -1.04919 27.4085 1.87117C26.3688 1.28508 25.0247 1.62865 24.4156 2.62905C24.2161 2.95241 24.1216 3.3162 24.1216 3.69008C24.1216 4.06397 24.2266 4.42775 24.4156 4.75112C23.2499 6.39824 22.5884 8.3182 22.4833 10.2988L6.55283 28.3869C5.81774 29.2155 5.71272 30.4079 6.27979 31.3477L4.61008 32.9544C3.08739 34.4196 2.90887 36.7438 4.20053 38.4111L2.18428 40.3513C0.777098 41.6851 0 43.504 0 45.3937C0 45.7272 0.283536 46 0.63008 46C0.976624 46 1.26016 45.7272 1.26016 45.3937C1.26016 43.8173 1.91124 42.3117 3.06639 41.2001L5.08264 39.2599C6.81536 40.4927 9.23067 40.3311 10.7534 38.8658L12.4336 37.249C13.4102 37.7644 14.6073 37.6532 15.458 36.9661L34.2973 21.667C36.3556 21.5761 38.3614 20.9293 40.0626 19.8077C41.1127 20.3938 42.4464 20.0502 43.0554 19.0498C43.255 18.7264 43.3495 18.3626 43.3495 17.9888C43.3495 17.6149 43.2445 17.2511 43.0554 16.9277C46.0903 12.6331 45.5233 6.85297 41.7008 3.17473ZM9.86075 38.017C8.6531 39.1791 6.69985 39.1791 5.49219 38.017C4.28454 36.8549 4.28454 34.9754 5.49219 33.8133L7.0989 32.2672L11.4569 36.4709L9.86075 38.017ZM18.2513 33.116L13.5677 28.6092C13.3262 28.3768 12.9271 28.3768 12.6751 28.6092C12.4336 28.8416 12.4336 29.2256 12.6751 29.4681L17.2852 33.9042L14.6494 36.0465C14.1138 36.481 13.3157 36.4709 12.7906 36.0263C12.7696 36.0061 12.7486 35.9859 12.7276 35.9758L7.58196 31.0142L7.57146 31.0041L7.56096 30.994C7.05689 30.4887 7.03589 29.7005 7.50845 29.1751L9.73473 26.6488L10.9214 27.7907C11.1629 28.0231 11.562 28.0231 11.814 27.7907C12.0555 27.5583 12.0555 27.1743 11.814 26.9317L10.5538 25.7191L22.5464 12.1177C23.1554 17.0995 27.2404 21.0304 32.4176 21.6165L18.2513 33.116ZM33.9928 20.4645C28.4691 20.5959 23.8695 16.4023 23.733 11.0769C23.6805 9.16703 24.2161 7.29759 25.2767 5.68078L39.0859 18.9689C37.5633 19.9087 35.799 20.4241 33.9928 20.4645ZM42.1943 15.9981L40.5876 14.452C40.3461 14.2095 39.9471 14.2095 39.695 14.4419C39.443 14.6743 39.443 15.0583 39.6845 15.3008L39.695 15.3109L41.7848 17.3218C41.8058 17.342 41.8163 17.3622 41.8373 17.3824C41.8373 17.3824 41.8478 17.3926 41.8583 17.3926C42.1838 17.7462 42.1733 18.2919 41.8268 18.6254C41.4592 18.9689 40.8712 18.9689 40.5036 18.6254L25.6442 4.3267C25.2872 3.97303 25.2872 3.41725 25.6547 3.06357C26.0118 2.72 26.5999 2.70989 26.9674 3.05346C26.9779 3.06357 26.9779 3.06357 26.9884 3.07367L37.4057 13.0979C37.6473 13.3404 38.0463 13.3404 38.2983 13.108C38.5504 12.8756 38.5504 12.4916 38.3088 12.2491C38.3088 12.2491 38.3088 12.2491 38.2983 12.239L28.3956 2.70989C33.0687 -0.139736 39.2435 1.20424 42.2048 5.69089C44.2631 8.83356 44.2631 12.8453 42.1943 15.9981Z" fill="url(#paint8_linear_241_17028)"/>
<defs>
<linearGradient id="paint0_linear_241_17028" x1="20.611" y1="24.141" x2="23.9854" y2="17.827" gradientUnits="userSpaceOnUse">
<stop stop-color="#713E8B"/>
<stop offset="0.54" stop-color="#D4242F"/>
<stop offset="1" stop-color="#713E8B"/>
</linearGradient>
<linearGradient id="paint1_linear_241_17028" x1="27.0927" y1="41.491" x2="29.749" y2="36.5396" gradientUnits="userSpaceOnUse">
<stop stop-color="#713E8B"/>
<stop offset="0.54" stop-color="#D4242F"/>
<stop offset="1" stop-color="#713E8B"/>
</linearGradient>
<linearGradient id="paint2_linear_241_17028" x1="41.7355" y1="31.9473" x2="43.9139" y2="27.8847" gradientUnits="userSpaceOnUse">
<stop stop-color="#713E8B"/>
<stop offset="0.54" stop-color="#D4242F"/>
<stop offset="1" stop-color="#713E8B"/>
</linearGradient>
<linearGradient id="paint3_linear_241_17028" x1="13.1363" y1="6.366" x2="15.7927" y2="1.4146" gradientUnits="userSpaceOnUse">
<stop stop-color="#713E8B"/>
<stop offset="0.54" stop-color="#D4242F"/>
<stop offset="1" stop-color="#713E8B"/>
</linearGradient>
<linearGradient id="paint4_linear_241_17028" x1="6.46673" y1="16.3629" x2="8.63967" y2="12.304" gradientUnits="userSpaceOnUse">
<stop stop-color="#713E8B"/>
<stop offset="0.54" stop-color="#D4242F"/>
<stop offset="1" stop-color="#713E8B"/>
</linearGradient>
<linearGradient id="paint5_linear_241_17028" x1="33.1177" y1="31.3292" x2="36.6397" y2="24.7498" gradientUnits="userSpaceOnUse">
<stop stop-color="#713E8B"/>
<stop offset="0.54" stop-color="#D4242F"/>
<stop offset="1" stop-color="#713E8B"/>
</linearGradient>
<linearGradient id="paint6_linear_241_17028" x1="33.5828" y1="3.73587" x2="33.9204" y2="1.5505" gradientUnits="userSpaceOnUse">
<stop stop-color="#713E8B"/>
<stop offset="0.54" stop-color="#D4242F"/>
<stop offset="1" stop-color="#713E8B"/>
</linearGradient>
<linearGradient id="paint7_linear_241_17028" x1="38.5861" y1="5.27793" x2="39.5814" y2="3.26584" gradientUnits="userSpaceOnUse">
<stop stop-color="#713E8B"/>
<stop offset="0.54" stop-color="#D4242F"/>
<stop offset="1" stop-color="#713E8B"/>
</linearGradient>
<linearGradient id="paint8_linear_241_17028" x1="19.0428" y1="31.6047" x2="45.9253" y2="-15.6655" gradientUnits="userSpaceOnUse">
<stop stop-color="#713E8B"/>
<stop offset="0.54" stop-color="#D4242F"/>
<stop offset="1" stop-color="#713E8B"/>
</linearGradient>
</defs>
</svg>
