<svg width="45" height="39" viewBox="0 0 45 39" fill="none" xmlns="http://www.w3.org/2000/svg">
<path d="M44.6754 15.8186C44.4742 15.6998 44.2253 15.696 44.0207 15.8086L35.7881 20.3411V18.7617C35.7881 17.0882 34.4266 15.7267 32.7531 15.7267H31.0366C33.3581 14.2368 34.8995 11.6326 34.8995 8.67519C34.8995 7.1887 34.5047 5.72848 33.7579 4.45231C33.5736 4.1374 33.1691 4.0314 32.8543 4.21589C32.5395 4.40011 32.4337 4.80467 32.6179 5.11949C33.2464 6.19343 33.5785 7.42302 33.5785 8.67528C33.5785 12.5635 30.4153 15.7267 26.5271 15.7267C22.6389 15.7267 19.4756 12.5635 19.4756 8.67528C19.4756 4.78709 22.6389 1.62373 26.5271 1.62373C28.183 1.62373 29.7922 2.20908 31.0581 3.27203C31.3376 3.50661 31.754 3.4704 31.9886 3.19082C32.2232 2.9115 32.1869 2.4949 31.9075 2.26032C30.4039 0.997949 28.4932 0.302734 26.5271 0.302734C22.4382 0.302734 19.0256 3.24935 18.2986 7.13043C17.1852 5.77946 15.4998 4.91664 13.6165 4.91664C10.272 4.91664 7.55105 7.63764 7.55105 10.9821C7.55105 12.9017 8.44832 14.6146 9.84438 15.7268C8.17243 15.7287 6.81277 17.0894 6.81277 18.7618V18.8687H4.12366L0.943515 17.3622C0.524716 17.1485 -0.013614 17.4892 0.000272771 17.9591V26.1551C-0.0138776 26.6252 0.525419 26.9658 0.943515 26.7521L4.12366 25.2456H6.81285V35.6616C6.81285 37.3352 8.17437 38.6967 9.84789 38.6967H27.046C27.4107 38.6967 27.7065 38.401 27.7065 38.0362C27.7065 37.6714 27.4108 37.3757 27.046 37.3757H9.84789C8.90272 37.3757 8.13376 36.6067 8.13376 35.6615V18.7618C8.13376 17.8166 8.90272 17.0477 9.84789 17.0477H32.7531C33.6983 17.0477 34.4672 17.8165 34.4672 18.7618V35.6616C34.4672 36.6068 33.6983 37.3759 32.7531 37.3759H29.6878C29.3231 37.3759 29.0273 37.6715 29.0273 38.0364C29.0273 38.4012 29.323 38.6969 29.6878 38.6969H32.7531C34.4266 38.6969 35.7881 37.3353 35.7881 35.6617V30.4193L44.0207 34.9518C44.44 35.1998 45.0148 34.8602 44.9998 34.3733V16.3872C44.9998 16.1536 44.8764 15.9374 44.6754 15.8186V15.8186ZM1.32118 19.0028L3.31454 19.9472V24.1672L1.32118 25.1116V19.0028ZM4.63554 23.9247V20.1897H6.81285V23.9247H4.63554ZM8.87196 10.9821C8.87196 8.36599 11.0003 6.23755 13.6165 6.23755C16.2326 6.23755 18.3611 8.36599 18.3611 10.9821C18.3611 13.5983 16.2327 15.7267 13.6165 15.7267C11.0004 15.7267 8.87196 13.5983 8.87196 10.9821ZM17.3887 15.7267C18.2779 15.0183 18.9639 14.0663 19.3451 12.9719C20.0123 14.0829 20.9288 15.0277 22.0181 15.7267H17.3887ZM43.6788 33.2557L35.7882 28.9114V21.8491L43.6788 17.5048V33.2557Z" fill="url(#paint0_linear_236_10644)"/>
<path d="M23.1599 8.67479C23.1599 10.5315 24.6704 12.042 26.5271 12.042C28.3837 12.042 29.8942 10.5315 29.8942 8.67479C29.8942 6.81811 28.3837 5.30762 26.5271 5.30762C24.6704 5.30762 23.1599 6.81811 23.1599 8.67479ZM28.5732 8.67479C28.5732 9.80305 27.6553 10.721 26.5271 10.721C25.3987 10.721 24.4808 9.80305 24.4808 8.67479C24.4808 7.54654 25.3987 6.62853 26.5271 6.62853C27.6553 6.62861 28.5732 7.54654 28.5732 8.67479Z" fill="url(#paint1_linear_236_10644)"/>
<path d="M13.6165 13.3616C14.9286 13.3616 15.996 12.294 15.996 10.982C15.996 9.66997 14.9286 8.60254 13.6165 8.60254C12.3044 8.60254 11.2369 9.66997 11.2369 10.982C11.237 12.2941 12.3044 13.3616 13.6165 13.3616ZM13.6165 9.92345C14.2002 9.92345 14.6751 10.3983 14.6751 10.982C14.6751 11.5658 14.2002 12.0406 13.6165 12.0406C13.0328 12.0406 12.5579 11.5658 12.5579 10.982C12.5579 10.3983 13.0328 9.92345 13.6165 9.92345Z" fill="url(#paint2_linear_236_10644)"/>
<path d="M29.0274 28.9347V21.7296C29.0274 20.8798 28.336 20.1885 27.4863 20.1885H20.3425C19.9777 20.1885 19.682 20.4841 19.682 20.849C19.682 21.2138 19.9776 21.5095 20.3425 21.5095H27.4863C27.6077 21.5095 27.7065 21.6082 27.7065 21.7296V28.9348C27.7065 29.0563 27.6077 29.155 27.4863 29.155H15.1147C14.9933 29.155 14.8945 29.0563 14.8945 28.9348V21.7296C14.8945 21.6082 14.9933 21.5095 15.1147 21.5095H17.7007C18.0654 21.5095 18.3612 21.2138 18.3612 20.849C18.3612 20.4841 18.0655 20.1885 17.7007 20.1885H15.1147C14.2649 20.1885 13.5736 20.8798 13.5736 21.7296V28.9347C13.5736 29.7845 14.2649 30.4758 15.1147 30.4758H27.4863C28.336 30.4758 29.0274 29.7845 29.0274 28.9347Z" fill="url(#paint3_linear_236_10644)"/>
<path d="M24.8536 32.7715C24.4888 32.7715 24.1931 33.0672 24.1931 33.432C24.1931 33.7968 24.4888 34.0925 24.8536 34.0925H26.5011C26.8658 34.0925 27.1616 33.7968 27.1616 33.432C27.1616 33.0672 26.8659 32.7715 26.5011 32.7715H24.8536Z" fill="url(#paint4_linear_236_10644)"/>
<path d="M20.4767 32.7715C20.1119 32.7715 19.8162 33.0672 19.8162 33.432C19.8162 33.7968 20.1119 34.0925 20.4767 34.0925H22.1243C22.489 34.0925 22.7848 33.7968 22.7848 33.432C22.7848 33.0672 22.4891 32.7715 22.1243 32.7715H20.4767Z" fill="url(#paint5_linear_236_10644)"/>
<path d="M16.0997 32.7715C15.735 32.7715 15.4392 33.0672 15.4392 33.432C15.4392 33.7968 15.735 34.0925 16.0997 34.0925H17.7473C18.1121 34.0925 18.4078 33.7968 18.4078 33.432C18.4078 33.0672 18.1122 32.7715 17.7473 32.7715H16.0997Z" fill="url(#paint6_linear_236_10644)"/>
<defs>
<linearGradient id="paint0_linear_236_10644" x1="19.0428" y1="26.6817" x2="39.27" y2="-15.9316" gradientUnits="userSpaceOnUse">
<stop stop-color="#713E8B"/>
<stop offset="0.54" stop-color="#D4242F"/>
<stop offset="1" stop-color="#713E8B"/>
</linearGradient>
<linearGradient id="paint1_linear_236_10644" x1="26.0097" y1="9.93451" x2="29.9006" y2="2.94071" gradientUnits="userSpaceOnUse">
<stop stop-color="#713E8B"/>
<stop offset="0.54" stop-color="#D4242F"/>
<stop offset="1" stop-color="#713E8B"/>
</linearGradient>
<linearGradient id="paint2_linear_236_10644" x1="13.2508" y1="11.8723" x2="16.0004" y2="6.92986" gradientUnits="userSpaceOnUse">
<stop stop-color="#713E8B"/>
<stop offset="0.54" stop-color="#D4242F"/>
<stop offset="1" stop-color="#713E8B"/>
</linearGradient>
<linearGradient id="paint3_linear_236_10644" x1="20.1132" y1="27.2565" x2="24.6695" y2="14.9535" gradientUnits="userSpaceOnUse">
<stop stop-color="#713E8B"/>
<stop offset="0.54" stop-color="#D4242F"/>
<stop offset="1" stop-color="#713E8B"/>
</linearGradient>
<linearGradient id="paint4_linear_236_10644" x1="25.4493" y1="33.6791" x2="25.8684" y2="31.9863" gradientUnits="userSpaceOnUse">
<stop stop-color="#713E8B"/>
<stop offset="0.54" stop-color="#D4242F"/>
<stop offset="1" stop-color="#713E8B"/>
</linearGradient>
<linearGradient id="paint5_linear_236_10644" x1="21.0724" y1="33.6791" x2="21.4915" y2="31.9863" gradientUnits="userSpaceOnUse">
<stop stop-color="#713E8B"/>
<stop offset="0.54" stop-color="#D4242F"/>
<stop offset="1" stop-color="#713E8B"/>
</linearGradient>
<linearGradient id="paint6_linear_236_10644" x1="16.6955" y1="33.6791" x2="17.1145" y2="31.9863" gradientUnits="userSpaceOnUse">
<stop stop-color="#713E8B"/>
<stop offset="0.54" stop-color="#D4242F"/>
<stop offset="1" stop-color="#713E8B"/>
</linearGradient>
</defs>
</svg>
