<svg width="174" height="59" viewBox="0 0 174 59" fill="none" xmlns="http://www.w3.org/2000/svg">
<path d="M44.5967 0.451172H15.0363C7.09938 0.451172 0.665222 6.86885 0.665222 14.7854V44.2701C0.665222 52.1867 7.09938 58.6044 15.0363 58.6044H44.5967C52.5337 58.6044 58.9679 52.1867 58.9679 44.2701V14.7854C58.9679 6.86885 52.5337 0.451172 44.5967 0.451172Z" fill="url(#paint0_linear_236_11051)"/>
<path d="M47.387 26.1064C46.7542 25.504 46.0049 25.0368 45.1848 24.7334C44.3647 24.4299 43.4911 24.2966 42.6176 24.3417C41.4866 24.3351 40.3676 24.573 39.3377 25.0392C38.3628 25.4655 37.5061 26.1213 36.8412 26.9505C36.3043 26.1129 35.5438 25.4414 34.6453 25.0113C33.6924 24.5449 32.6437 24.3061 31.5822 24.3138C30.6096 24.3046 29.6447 24.4871 28.743 24.8509C27.9053 25.1884 27.1582 25.7162 26.5611 26.3924V26.3924L25.7849 27.09C25.5583 26.7241 25.2882 26.3868 24.9806 26.0855C24.3409 25.4841 23.5866 25.0169 22.7626 24.7114C21.9386 24.4058 21.0615 24.2683 20.1833 24.3068C19.2107 24.2996 18.2446 24.4649 17.33 24.7951C16.4945 25.0947 15.7336 25.5706 15.0992 26.1902V18.5312H10.4836V40.5244H15.1132V32.6423C15.0261 31.4758 15.4001 30.3217 16.1552 29.4267C16.5188 29.0602 16.956 28.7744 17.438 28.5881C17.9201 28.4018 18.4362 28.3191 18.9525 28.3455C19.3976 28.3158 19.8439 28.3842 20.2596 28.5457C20.6754 28.7072 21.0504 28.958 21.3581 29.2802C21.9613 30.081 22.2566 31.0709 22.1903 32.0703V40.5244H26.8198V31.7774C26.8603 30.9043 27.1871 30.0686 27.7499 29.3988C28.0721 29.0475 28.4677 28.7711 28.9088 28.5891C29.3499 28.4071 29.8256 28.3239 30.3025 28.3455C32.3305 28.3455 33.3445 29.5988 33.3445 32.1052V40.5244H37.9741V32.5237C37.8962 31.3988 38.2402 30.2851 38.9391 29.3988C39.2669 29.0451 39.6685 28.7675 40.1156 28.5855C40.5627 28.4036 41.0443 28.3216 41.5266 28.3455C41.9476 28.3196 42.3689 28.3903 42.7581 28.5524C43.1473 28.7144 43.494 28.9635 43.7715 29.2802C44.3475 30.0923 44.6242 31.078 44.5547 32.0703V40.5244H49.1912V31.3937C49.1679 29.0454 48.5665 27.283 47.387 26.1064Z" fill="white"/>
<path d="M90.3043 9.88965V32.0154H85.7727V22.9474H76.8773V32.0154H72.3457V9.88965H76.8773V18.6158H85.7727V9.88965H90.3043Z" fill="#BCBEC0"/>
<path d="M107.844 27.2721H98.7524L97.018 32.0154H92.3745L101.102 9.88965H105.578L114.333 32.0154H109.578L107.844 27.2721ZM106.445 23.3869L103.312 14.9119L100.207 23.3869H106.445Z" fill="#BCBEC0"/>
<path d="M129.368 10.8663C130.608 11.4843 131.635 12.4554 132.32 13.6564C133.037 14.9629 133.395 16.436 133.355 17.9253C133.393 19.4078 133.036 20.8737 132.32 22.1733C131.643 23.3811 130.614 24.3544 129.368 24.9634C127.96 25.6345 126.412 25.9643 124.851 25.926H120.907V32.0294H116.375V9.88975H124.851C126.413 9.85093 127.962 10.1858 129.368 10.8663V10.8663ZM127.704 20.7433C128.067 20.3785 128.35 19.9416 128.533 19.461C128.716 18.9803 128.796 18.4666 128.767 17.9532C128.803 17.4287 128.726 16.9025 128.543 16.4095C128.36 15.9166 128.074 15.468 127.704 15.0933C126.837 14.3736 125.724 14.0162 124.599 14.0959H120.907V21.7687H124.599C125.728 21.8436 126.843 21.4757 127.704 20.7433V20.7433Z" fill="#BCBEC0"/>
<path d="M149.537 10.8663C150.776 11.4843 151.803 12.4554 152.488 13.6564C153.206 14.9629 153.563 16.436 153.523 17.9253C153.561 19.4078 153.204 20.8737 152.488 22.1733C151.812 23.3811 150.782 24.3544 149.537 24.9634C148.128 25.6345 146.58 25.9643 145.019 25.926H141.075V32.0294H136.543V9.88975H145.019C146.582 9.85093 148.131 10.1858 149.537 10.8663V10.8663ZM147.872 20.7433C148.236 20.3785 148.518 19.9416 148.701 19.461C148.884 18.9803 148.964 18.4666 148.935 17.9532C148.971 17.4287 148.895 16.9025 148.712 16.4095C148.528 15.9166 148.242 15.468 147.872 15.0933C147.005 14.3736 145.893 14.0162 144.767 14.0959H141.075V21.7687H144.767C145.906 21.851 147.032 21.4827 147.9 20.7433H147.872Z" fill="#BCBEC0"/>
<path d="M166.167 24.1751V32.0154H161.635V24.1123L154.055 9.88965H158.866L164.097 19.7179L169.328 9.88965H173.776L166.167 24.1751Z" fill="#BCBEC0"/>
<path d="M89.5001 39.9881C89.9257 40.4697 90.2506 41.0312 90.456 41.6396C90.6613 42.2481 90.7429 42.8913 90.6959 43.5316V49.9628H89.1994V43.685C89.2658 42.7317 88.9657 41.7889 88.3602 41.0483C88.056 40.7369 87.6879 40.4946 87.2812 40.3381C86.8744 40.1816 86.4386 40.1146 86.0035 40.1416C85.4989 40.1153 84.9945 40.197 84.5241 40.381C84.0537 40.5651 83.6282 40.8473 83.2761 41.2088C82.5748 42.0216 82.2186 43.0749 82.2831 44.1454V49.9698H80.7865V43.692C80.8529 42.7387 80.5529 41.7959 79.9474 41.0553C79.6394 40.743 79.2677 40.5003 78.8574 40.3439C78.4472 40.1874 78.008 40.1208 77.5696 40.1485C77.0673 40.1234 76.5653 40.2056 76.0973 40.3897C75.6294 40.5737 75.2063 40.8554 74.8563 41.2158C74.1479 42.0253 73.7863 43.0797 73.8493 44.1524V49.9767H72.3457V38.8581H73.7863V40.8809C74.1598 40.2041 74.7238 39.6513 75.4087 39.2906C76.1609 38.9135 76.9937 38.7244 77.8354 38.7395C78.6804 38.7198 79.5154 38.9244 80.255 39.3324C80.9448 39.7339 81.4849 40.3485 81.7936 41.0832C82.1991 40.3509 82.8121 39.754 83.5559 39.3673C84.3647 38.9387 85.2696 38.7226 86.1853 38.7395C86.7944 38.7074 87.4035 38.8018 87.9741 39.0168C88.5447 39.2317 89.0643 39.5625 89.5001 39.9881V39.9881Z" fill="#BCBEC0"/>
<path d="M96.4723 49.3208C95.6223 48.8497 94.9183 48.1548 94.4373 47.3119C93.9507 46.418 93.6958 45.4169 93.6958 44.3997C93.6958 43.3825 93.9507 42.3814 94.4373 41.4875C94.9208 40.6482 95.6243 39.9562 96.4723 39.4856C97.3641 39.0141 98.3581 38.7676 99.3675 38.7676C100.377 38.7676 101.371 39.0141 102.263 39.4856C103.108 39.9531 103.805 40.6464 104.277 41.4875C104.759 42.383 105.011 43.3835 105.011 44.3997C105.011 45.416 104.759 46.4164 104.277 47.3119C103.808 48.1567 103.11 48.8529 102.263 49.3208C101.374 49.8013 100.379 50.0529 99.3675 50.0529C98.3564 50.0529 97.3613 49.8013 96.4723 49.3208V49.3208ZM101.486 48.1838C102.116 47.8271 102.628 47.2966 102.962 46.6562C103.307 45.9538 103.487 45.1819 103.487 44.3997C103.487 43.6175 103.307 42.8456 102.962 42.1432C102.628 41.5028 102.116 40.9723 101.486 40.6156C100.835 40.2633 100.105 40.0789 99.364 40.0789C98.6228 40.0789 97.8933 40.2633 97.2416 40.6156C96.612 40.9741 96.0978 41.5039 95.759 42.1432C95.4049 42.843 95.2205 43.6159 95.2205 44.3997C95.2205 45.1835 95.4049 45.9564 95.759 46.6562C96.0978 47.2955 96.612 47.8253 97.2416 48.1838C97.8933 48.5361 98.6228 48.7206 99.364 48.7206C100.105 48.7206 100.835 48.5361 101.486 48.1838V48.1838Z" fill="#BCBEC0"/>
<path d="M125.229 39.9876C125.659 40.4648 125.989 41.0227 126.2 41.6287C126.412 42.2348 126.5 42.8767 126.459 43.5171V49.9484H124.921V43.6706C124.989 42.7182 124.692 41.7755 124.089 41.0339C123.784 40.7228 123.416 40.4808 123.009 40.3243C122.603 40.1679 122.167 40.1006 121.732 40.1271C121.227 40.1009 120.723 40.1826 120.253 40.3666C119.782 40.5507 119.357 40.8329 119.005 41.1943C118.303 42.0071 117.947 43.0605 118.012 44.131V49.9553H116.508V43.6776C116.573 42.7256 116.276 41.7842 115.676 41.0409C115.368 40.7285 114.996 40.4859 114.586 40.3295C114.176 40.173 113.736 40.1064 113.298 40.1341C112.795 40.1098 112.292 40.1923 111.823 40.3763C111.354 40.5603 110.93 40.8415 110.578 41.2013C109.875 42.0134 109.516 43.0666 109.578 44.1379V49.9623H108.074V38.8576H109.515V40.8805C109.895 40.2014 110.466 39.6485 111.158 39.2901C111.913 38.9138 112.748 38.7247 113.592 38.739C114.437 38.7203 115.272 38.9249 116.012 39.3319C116.701 39.7318 117.239 40.3471 117.543 41.0827C117.953 40.3514 118.568 39.7551 119.312 39.3668C120.121 38.9382 121.026 38.7221 121.942 38.739C122.546 38.7113 123.15 38.8078 123.715 39.0226C124.281 39.2374 124.796 39.5659 125.229 39.9876V39.9876Z" fill="#BCBEC0"/>
<path d="M140.229 44.8707H130.928C130.951 45.4007 131.081 45.9207 131.309 46.3999C131.537 46.8792 131.859 47.3079 132.257 47.6608C133.104 48.3827 134.192 48.7611 135.306 48.721C135.958 48.7299 136.606 48.6041 137.208 48.3513C137.781 48.1064 138.292 47.737 138.704 47.2702L139.55 48.2397C139.053 48.831 138.42 49.293 137.704 49.586C136.826 49.9347 135.882 50.0915 134.938 50.0458C133.993 50.0001 133.069 49.7529 132.229 49.3209C131.366 48.8566 130.652 48.1607 130.166 47.312C129.663 46.4257 129.407 45.4214 129.424 44.4033C129.406 43.388 129.647 42.3847 130.124 41.4876C130.574 40.6584 131.241 39.9665 132.054 39.4857C132.902 39.0148 133.856 38.7676 134.827 38.7676C135.797 38.7676 136.751 39.0148 137.599 39.4857C138.413 39.9603 139.079 40.6509 139.522 41.4806C140.002 42.3793 140.243 43.3855 140.222 44.4033L140.229 44.8707ZM132.166 41.0831C131.43 41.7858 130.987 42.7402 130.928 43.7546H138.809C138.749 42.7418 138.309 41.7885 137.578 41.0831C136.84 40.397 135.86 40.0286 134.851 40.0577C133.856 40.0318 132.892 40.3976 132.166 41.0761V41.0831Z" fill="#BCBEC0"/>
<path d="M152.334 39.988C152.768 40.4642 153.1 41.023 153.312 41.6308C153.523 42.2385 153.61 42.8826 153.565 43.5244V49.9557H152.069V43.6779C152.133 42.7201 151.822 41.7748 151.201 41.0412C150.875 40.7264 150.486 40.483 150.06 40.3269C149.633 40.1707 149.179 40.1052 148.726 40.1344C148.204 40.1073 147.683 40.188 147.194 40.3717C146.706 40.5554 146.26 40.838 145.886 41.2017C145.523 41.5961 145.243 42.0593 145.063 42.5637C144.883 43.0682 144.806 43.6036 144.838 44.1383V49.9627H143.313V38.8579H144.754V40.9017C145.157 40.2267 145.747 39.6819 146.453 39.3323C147.236 38.9426 148.103 38.7487 148.978 38.7673C149.591 38.7344 150.204 38.8257 150.781 39.0354C151.358 39.2452 151.886 39.5692 152.334 39.988V39.988Z" fill="#BCBEC0"/>
<path d="M163.482 49.2722C163.178 49.5386 162.82 49.7361 162.433 49.8512C162.015 49.9857 161.578 50.054 161.139 50.0535C160.701 50.0811 160.261 50.0206 159.847 49.8756C159.432 49.7306 159.051 49.5041 158.726 49.2095C158.431 48.8893 158.204 48.513 158.059 48.103C157.913 47.693 157.852 47.2579 157.88 46.8239V40.1206H155.894V38.8581H157.88V36.4307H159.384V38.8581H162.761V40.1206H159.384V46.7402C159.345 47.2879 159.523 47.8291 159.88 48.2469C160.065 48.4245 160.285 48.562 160.525 48.6509C160.766 48.7397 161.023 48.7779 161.279 48.763C161.583 48.7631 161.886 48.7136 162.174 48.6166C162.45 48.5267 162.707 48.3846 162.929 48.198L163.482 49.2722Z" fill="#BCBEC0"/>
<path d="M166.601 49.6628C165.896 49.4665 165.237 49.1322 164.664 48.6793L165.363 47.5005C165.892 47.8967 166.486 48.1988 167.118 48.3933C167.826 48.6282 168.568 48.7461 169.314 48.7421C170.095 48.7998 170.875 48.6353 171.566 48.2677C171.791 48.1261 171.974 47.9276 172.097 47.6923C172.22 47.457 172.278 47.1935 172.265 46.9285C172.273 46.7491 172.241 46.5703 172.171 46.405C172.101 46.2396 171.994 46.092 171.86 45.9729C171.565 45.7242 171.218 45.5432 170.846 45.4427C170.31 45.2949 169.766 45.1784 169.216 45.094C168.481 44.9686 167.754 44.7961 167.041 44.5778C166.504 44.4092 166.021 44.1011 165.643 43.685C165.234 43.1959 165.026 42.5701 165.062 41.9342C165.056 41.4886 165.158 41.0481 165.36 40.6508C165.563 40.2534 165.859 39.9111 166.223 39.6532C167.176 39.013 168.314 38.7018 169.461 38.7674C170.188 38.7702 170.912 38.8663 171.615 39.0534C172.245 39.2038 172.845 39.4585 173.391 39.8067L172.734 41.0064C171.768 40.3584 170.624 40.0268 169.461 40.0578C168.704 40.0068 167.95 40.1816 167.293 40.56C167.073 40.7045 166.893 40.9027 166.77 41.1358C166.648 41.3689 166.587 41.6293 166.594 41.8923C166.585 42.08 166.616 42.2675 166.686 42.442C166.756 42.6165 166.863 42.774 166.999 42.9037C167.295 43.1648 167.647 43.3556 168.027 43.4618C168.584 43.6149 169.149 43.7383 169.72 43.8314C170.441 43.9568 171.153 44.1269 171.853 44.3406C172.386 44.4987 172.869 44.7947 173.251 45.1986C173.649 45.6684 173.852 46.2724 173.818 46.8866C173.829 47.3422 173.724 47.7933 173.512 48.1972C173.301 48.6011 172.989 48.9446 172.608 49.1955C171.597 49.8215 170.418 50.1212 169.23 50.0534C168.339 50.0601 167.452 49.9284 166.601 49.6628V49.6628Z" fill="#BCBEC0"/>
<defs>
<linearGradient id="paint0_linear_236_11051" x1="25.3374" y1="40.4058" x2="58.891" y2="-20.061" gradientUnits="userSpaceOnUse">
<stop stop-color="#713E8B"/>
<stop offset="0.54" stop-color="#D4242F"/>
<stop offset="1" stop-color="#713E8B"/>
</linearGradient>
</defs>
</svg>
