<svg width="35" height="35" viewBox="0 0 35 35" fill="none" xmlns="http://www.w3.org/2000/svg">
<circle cx="17.5" cy="17.5" r="17.5" fill="#F2F2F2"/>
<path d="M21.5455 8.75372L19.4468 8.75C17.0889 8.75 15.5652 10.4757 15.5652 13.1466V15.1737H13.455C13.2727 15.1737 13.125 15.3368 13.125 15.5381V18.4752C13.125 18.6764 13.2728 18.8394 13.455 18.8394H15.5652V26.2505C15.5652 26.4518 15.7128 26.6148 15.8952 26.6148H18.6484C18.8307 26.6148 18.9784 26.4516 18.9784 26.2505V18.8394H21.4457C21.628 18.8394 21.7757 18.6764 21.7757 18.4752L21.7767 15.5381C21.7767 15.4415 21.7418 15.3489 21.68 15.2805C21.6182 15.2121 21.5341 15.1737 21.4465 15.1737H18.9784V13.4553C18.9784 12.6293 19.1567 12.21 20.1314 12.21L21.5452 12.2095C21.7273 12.2095 21.875 12.0463 21.875 11.8452V9.11799C21.875 8.91708 21.7275 8.75409 21.5455 8.75372Z" fill="url(#paint0_linear_294_82)"/>
<defs>
<linearGradient id="paint0_linear_294_82" x1="16.8278" y1="21.0241" x2="28.8776" y2="10.4157" gradientUnits="userSpaceOnUse">
<stop stop-color="#713E8B"/>
<stop offset="0.54" stop-color="#D4242F"/>
<stop offset="1" stop-color="#713E8B"/>
</linearGradient>
</defs>
</svg>
