<svg width="35" height="35" viewBox="0 0 35 35" fill="none" xmlns="http://www.w3.org/2000/svg">
<circle cx="17.5" cy="17.5" r="17.5" fill="#F2F2F2"/>
<path d="M26.2055 14.0024C26.1645 13.0531 26.0141 12.4005 25.7987 11.835C25.5764 11.2348 25.2345 10.6974 24.7865 10.2507C24.3488 9.79698 23.8188 9.44444 23.2375 9.22114C22.6803 9.00125 22.0443 8.84775 21.1142 8.80589C20.1773 8.7605 19.8798 8.75 17.5034 8.75C15.127 8.75 14.8295 8.7605 13.896 8.80235C12.966 8.8442 12.3266 8.99784 11.7727 9.2176C11.1845 9.44444 10.658 9.79344 10.2203 10.2507C9.77579 10.6974 9.43052 11.2384 9.21161 11.8316C8.99616 12.4005 8.84577 13.0496 8.80476 13.9988C8.76028 14.9551 8.75 15.2587 8.75 17.6842C8.75 20.1097 8.76028 20.4133 8.80129 21.3661C8.84229 22.3154 8.99282 22.9679 9.20827 23.5334C9.43052 24.1337 9.77579 24.6711 10.2203 25.1178C10.658 25.5715 11.188 25.924 11.7693 26.1473C12.3266 26.3672 12.9625 26.5207 13.8927 26.5626C14.8261 26.6046 15.1237 26.6149 17.5001 26.6149C19.8765 26.6149 20.1739 26.6046 21.1074 26.5626C22.0374 26.5207 22.6768 26.3672 23.2307 26.1473C24.4071 25.6831 25.3371 24.7339 25.7919 23.5334C26.0072 22.9645 26.1577 22.3154 26.1987 21.3661C26.2397 20.4133 26.25 20.1097 26.25 17.6842C26.25 15.2587 26.2465 14.9551 26.2055 14.0024ZM24.6293 21.2963C24.5916 22.1688 24.4481 22.6399 24.3284 22.954C24.0343 23.7323 23.4291 24.35 22.6665 24.6502C22.3588 24.7724 21.8939 24.9189 21.0424 24.9572C20.1192 24.9992 19.8423 25.0096 17.5069 25.0096C15.1715 25.0096 14.8911 24.9992 13.9712 24.9572C13.1164 24.9189 12.6548 24.7724 12.3471 24.6502C11.9676 24.5071 11.6222 24.2802 11.3419 23.9836C11.0512 23.6939 10.829 23.3449 10.6887 22.9576C10.569 22.6435 10.4255 22.1688 10.3879 21.2999C10.3468 20.3576 10.3366 20.0748 10.3366 17.6912C10.3366 15.3075 10.3468 15.0214 10.3879 14.0826C10.4255 13.2102 10.569 12.739 10.6887 12.4249C10.829 12.0375 11.0512 11.6851 11.3453 11.3988C11.629 11.1022 11.971 10.8753 12.3505 10.7323C12.6583 10.6102 13.1234 10.4636 13.9747 10.4252C14.8979 10.3833 15.1749 10.3728 17.5102 10.3728C19.8491 10.3728 20.126 10.3833 21.0459 10.4252C21.9007 10.4636 22.3623 10.6102 22.67 10.7323C23.0495 10.8753 23.3949 11.1022 23.6752 11.3988C23.9659 11.6885 24.1881 12.0375 24.3284 12.4249C24.4481 12.739 24.5916 13.2136 24.6293 14.0826C24.6703 15.0249 24.6806 15.3075 24.6806 17.6912C24.6806 20.0748 24.6703 20.354 24.6293 21.2963Z" fill="url(#paint0_linear_294_105)"/>
<path d="M17.5035 13.0947C15.0211 13.0947 13.0071 15.1502 13.0071 17.684C13.0071 20.2178 15.0211 22.2733 17.5035 22.2733C19.9859 22.2733 21.9999 20.2178 21.9999 17.684C21.9999 15.1502 19.9859 13.0947 17.5035 13.0947ZM17.5035 20.6609C15.8931 20.6609 14.5868 19.3278 14.5868 17.684C14.5868 16.0402 15.8931 14.7071 17.5035 14.7071C19.114 14.7071 20.4202 16.0402 20.4202 17.684C20.4202 19.3278 19.114 20.6609 17.5035 20.6609Z" fill="url(#paint1_linear_294_105)"/>
<path d="M23.2273 12.9142C23.2273 13.5058 22.7573 13.9855 22.1775 13.9855C21.5978 13.9855 21.1277 13.5058 21.1277 12.9142C21.1277 12.3224 21.5978 11.8428 22.1775 11.8428C22.7573 11.8428 23.2273 12.3224 23.2273 12.9142Z" fill="url(#paint2_linear_294_105)"/>
<defs>
<linearGradient id="paint0_linear_294_105" x1="16.1555" y1="21.0242" x2="26.5887" y2="2.65402" gradientUnits="userSpaceOnUse">
<stop stop-color="#713E8B"/>
<stop offset="0.54" stop-color="#D4242F"/>
<stop offset="1" stop-color="#713E8B"/>
</linearGradient>
<linearGradient id="paint1_linear_294_105" x1="16.8126" y1="19.4009" x2="22.1723" y2="9.96189" gradientUnits="userSpaceOnUse">
<stop stop-color="#713E8B"/>
<stop offset="0.54" stop-color="#D4242F"/>
<stop offset="1" stop-color="#713E8B"/>
</linearGradient>
<linearGradient id="paint2_linear_294_105" x1="22.0162" y1="13.315" x2="23.2674" y2="11.1113" gradientUnits="userSpaceOnUse">
<stop stop-color="#713E8B"/>
<stop offset="0.54" stop-color="#D4242F"/>
<stop offset="1" stop-color="#713E8B"/>
</linearGradient>
</defs>
</svg>
