<svg width="35" height="35" viewBox="0 0 35 35" fill="none" xmlns="http://www.w3.org/2000/svg">
<circle cx="17.5" cy="17.5" r="17.5" fill="#F2F2F2"/>
<path d="M26.25 12.2169C25.6059 12.5083 24.9148 12.7059 24.1887 12.7941C24.9301 12.3409 25.4976 11.6219 25.7666 10.7679C25.0711 11.1877 24.3035 11.4924 23.4855 11.6577C22.8305 10.9443 21.8988 10.5 20.8653 10.5C18.8827 10.5 17.2752 12.141 17.2752 14.1639C17.2752 14.4508 17.3069 14.731 17.3682 14.9989C14.385 14.8459 11.7397 13.3869 9.96928 11.1698C9.6598 11.7101 9.48374 12.3397 9.48374 13.0118C9.48374 14.2833 10.118 15.4053 11.0803 16.0616C10.492 16.0416 9.93866 15.8763 9.45423 15.6017V15.6475C9.45423 17.4225 10.6921 18.9039 12.3335 19.241C12.0328 19.3236 11.7157 19.3694 11.3876 19.3694C11.1558 19.3694 10.9316 19.346 10.7118 19.3013C11.1689 20.7582 12.4943 21.8176 14.0646 21.8466C12.8366 22.829 11.2881 23.4129 9.60624 23.4129C9.31646 23.4129 9.03103 23.395 8.75 23.3626C10.3389 24.4042 12.2253 25.0115 14.2527 25.0115C20.8566 25.0115 24.4665 19.4275 24.4665 14.5847L24.4544 14.1103C25.1597 13.5967 25.7699 12.9515 26.25 12.2169Z" fill="url(#paint0_linear_294_86)"/>
<defs>
<linearGradient id="paint0_linear_294_86" x1="16.1555" y1="20.4702" x2="23.6623" y2="4.19827" gradientUnits="userSpaceOnUse">
<stop stop-color="#713E8B"/>
<stop offset="0.54" stop-color="#D4242F"/>
<stop offset="1" stop-color="#713E8B"/>
</linearGradient>
</defs>
</svg>
