<svg width="35" height="35" viewBox="0 0 35 35" fill="none" xmlns="http://www.w3.org/2000/svg">
<circle cx="17.5" cy="17.5" r="17.5" fill="#F2F2F2"/>
<path d="M26.1572 22.3302C26.136 22.2836 26.1162 22.2449 26.0979 22.2139C25.7943 21.6557 25.2141 20.9705 24.3576 20.1581L24.3395 20.1395L24.3304 20.1304L24.3213 20.121H24.3121C23.9234 19.7428 23.6772 19.4884 23.5742 19.3582C23.3855 19.1102 23.3433 18.8591 23.4464 18.6047C23.5192 18.4124 23.7928 18.0065 24.2664 17.3863C24.5156 17.0576 24.7129 16.7942 24.8586 16.5957C25.9095 15.1694 26.3652 14.258 26.2254 13.861L26.1711 13.7683C26.1346 13.7125 26.0405 13.6614 25.8888 13.6148C25.7368 13.5683 25.5424 13.5606 25.3055 13.5916L22.6814 13.6101C22.6389 13.5947 22.5782 13.5961 22.4991 13.6148C22.4202 13.6334 22.3807 13.6428 22.3807 13.6428L22.335 13.6661L22.2987 13.694C22.2684 13.7126 22.2349 13.7451 22.1985 13.7916C22.1622 13.838 22.1318 13.8924 22.1076 13.9544C21.8219 14.7047 21.4971 15.4023 21.1325 16.0472C20.9078 16.4317 20.7013 16.765 20.5128 17.0471C20.3246 17.3292 20.1666 17.537 20.0392 17.6703C19.9115 17.8036 19.7963 17.9104 19.6928 17.9911C19.5895 18.0719 19.5107 18.106 19.4561 18.0935C19.4013 18.081 19.3498 18.0686 19.301 18.0563C19.216 18.0004 19.1477 17.9245 19.0961 17.8284C19.0444 17.7323 19.0095 17.6113 18.9913 17.4656C18.9732 17.3197 18.9624 17.1943 18.9594 17.0888C18.9565 16.9835 18.9578 16.8345 18.964 16.6423C18.9703 16.45 18.9732 16.3199 18.9732 16.2517C18.9732 16.016 18.9777 15.7602 18.9867 15.4843C18.9959 15.2083 19.0033 14.9897 19.0095 14.8286C19.0157 14.6674 19.0186 14.4968 19.0186 14.317C19.0186 14.1371 19.0079 13.9961 18.9867 13.8937C18.9658 13.7915 18.9336 13.6923 18.8913 13.596C18.8487 13.4999 18.7863 13.4256 18.7045 13.3728C18.6225 13.3201 18.5206 13.2783 18.3993 13.2472C18.0773 13.1728 17.6673 13.1326 17.1691 13.1263C16.0393 13.1139 15.3134 13.1884 14.9915 13.3497C14.8639 13.4178 14.7485 13.5109 14.6453 13.6286C14.5359 13.7651 14.5206 13.8395 14.5996 13.8518C14.9641 13.9075 15.2222 14.0409 15.374 14.2517L15.4288 14.3634C15.4713 14.444 15.5139 14.5867 15.5564 14.7913C15.5989 14.9959 15.6263 15.2222 15.6383 15.4702C15.6687 15.9229 15.6687 16.3105 15.6383 16.6329C15.6079 16.9554 15.5792 17.2065 15.5518 17.3863C15.5244 17.5662 15.4834 17.7119 15.4288 17.8235C15.374 17.9351 15.3376 18.0033 15.3194 18.0281C15.3011 18.0528 15.286 18.0684 15.2739 18.0746C15.1949 18.1054 15.1128 18.1212 15.0278 18.1212C14.9427 18.1212 14.8395 18.0777 14.7181 17.9909C14.5966 17.904 14.4706 17.7847 14.34 17.6328C14.2094 17.4808 14.062 17.2684 13.898 16.9956C13.734 16.7228 13.5639 16.4003 13.3878 16.0283L13.242 15.7585C13.1509 15.5849 13.0265 15.3321 12.8685 15.0004C12.7105 14.6686 12.5708 14.3476 12.4494 14.0376C12.4008 13.9074 12.3279 13.8082 12.2307 13.74L12.1851 13.712C12.1548 13.6873 12.1061 13.661 12.0394 13.633C11.9725 13.605 11.9028 13.5849 11.8298 13.5726L9.33325 13.5911C9.07813 13.5911 8.90504 13.6501 8.81389 13.7679L8.77741 13.8236C8.75919 13.8547 8.75 13.9043 8.75 13.9725C8.75 14.0408 8.76822 14.1245 8.8047 14.2236C9.16915 15.098 9.56548 15.9413 9.9937 16.7537C10.4219 17.566 10.794 18.2204 11.1098 18.7161C11.4257 19.2123 11.7476 19.6805 12.0756 20.1207C12.4037 20.561 12.6208 20.8432 12.727 20.9671C12.8334 21.0913 12.917 21.1842 12.9777 21.2462L13.2055 21.4694C13.3513 21.6182 13.5654 21.7965 13.8478 22.0042C14.1304 22.212 14.4432 22.4166 14.7864 22.6183C15.1296 22.8197 15.5289 22.984 15.9846 23.1111C16.4401 23.2383 16.8835 23.2894 17.3149 23.2647H18.3627C18.5752 23.246 18.7362 23.1778 18.8456 23.06L18.8819 23.0134C18.9063 22.9764 18.9291 22.9189 18.9502 22.8415C18.9715 22.764 18.9821 22.6786 18.9821 22.5858C18.9758 22.3192 18.9957 22.0789 19.0412 21.865C19.0866 21.6511 19.1384 21.4899 19.1962 21.3813C19.2541 21.2728 19.3194 21.1813 19.3921 21.1071C19.4649 21.0327 19.5168 20.9876 19.5472 20.9721C19.5775 20.9565 19.6016 20.9459 19.6199 20.9396C19.7656 20.89 19.9372 20.938 20.1348 21.0839C20.3323 21.2296 20.5175 21.4095 20.6907 21.6234C20.8638 21.8374 21.0718 22.0775 21.3147 22.3441C21.5578 22.6108 21.7704 22.8091 21.9525 22.9395L22.1347 23.0511C22.2564 23.1256 22.4143 23.1938 22.6087 23.2558C22.8028 23.3178 22.9728 23.3333 23.1188 23.3023L25.4513 23.2652C25.682 23.2652 25.8615 23.2262 25.9888 23.1488C26.1164 23.0713 26.1922 22.9859 26.2166 22.893C26.241 22.8 26.2423 22.6945 26.2213 22.5766C26.1997 22.459 26.1784 22.3767 26.1572 22.3302Z" fill="url(#paint0_linear_294_91)"/>
<defs>
<linearGradient id="paint0_linear_294_91" x1="16.1555" y1="20.128" x2="20.2204" y2="7.58343" gradientUnits="userSpaceOnUse">
<stop stop-color="#713E8B"/>
<stop offset="0.54" stop-color="#D4242F"/>
<stop offset="1" stop-color="#713E8B"/>
</linearGradient>
</defs>
</svg>
