<svg width="35" height="35" viewBox="0 0 35 35" fill="none" xmlns="http://www.w3.org/2000/svg">
<circle cx="17.5" cy="17.5" r="17.5" fill="#F2F2F2"/>
<path d="M24.9798 17.7952C24.7777 16.9932 24.0592 16.4015 23.1944 16.3134C21.147 16.1046 19.0737 16.1036 17.0106 16.1046C14.9466 16.1036 12.8737 16.1046 10.8257 16.3134C9.96131 16.4017 9.24324 16.9934 9.04128 17.7952C8.75345 18.9373 8.75 20.1841 8.75 21.3601C8.75 22.5361 8.75 23.7826 9.03783 24.9247C9.23979 25.7266 9.95785 26.3182 10.8226 26.4065C12.8703 26.6155 14.9431 26.6163 17.0069 26.6155C19.0709 26.6165 21.1433 26.6155 23.1916 26.4065C24.0559 26.3182 24.7744 25.7266 24.9764 24.9247C25.264 23.7826 25.2655 22.5361 25.2655 21.3601C25.2653 20.1839 25.2675 18.9373 24.9798 17.7952ZM13.4608 18.6804H12.2655V24.4802H11.1551V18.6804H9.98159V17.7304H13.4608V18.6804ZM16.4765 24.4804H15.4778V23.9317C15.081 24.347 14.7043 24.5496 14.3372 24.5496C14.0155 24.5496 13.7942 24.4306 13.6943 24.1758C13.6399 24.0237 13.6062 23.783 13.6062 23.428V19.451H14.6041V23.1539C14.6041 23.3675 14.6041 23.4784 14.6132 23.5083C14.6372 23.6498 14.7129 23.7215 14.8467 23.7215C15.0469 23.7215 15.2562 23.5806 15.4776 23.2948V19.451H16.4763L16.4765 24.4804ZM20.2682 22.9709C20.2682 23.436 20.2339 23.7712 20.1672 23.9843C20.0339 24.3585 19.767 24.5496 19.37 24.5496C19.0148 24.5496 18.6722 24.3695 18.3384 23.9932V24.4806H17.3405V17.7304H18.3384V19.9348C18.6607 19.5725 19.0029 19.3893 19.37 19.3893C19.767 19.3893 20.0341 19.5802 20.1672 19.9567C20.2343 20.159 20.2682 20.4916 20.2682 20.9678V22.9709ZM24.0348 22.1318H22.0388V23.0233C22.0388 23.4888 22.2055 23.7213 22.5486 23.7213C22.7944 23.7213 22.9374 23.5994 22.9944 23.3558C23.0037 23.3064 23.0168 23.1039 23.0168 22.7384H24.035V22.8714C24.035 23.1651 24.0227 23.3675 24.0137 23.4585C23.9802 23.6602 23.9017 23.8433 23.7806 24.0044C23.5042 24.3697 23.0947 24.5498 22.5734 24.5498C22.0513 24.5498 21.6538 24.3782 21.3654 24.0348C21.1537 23.783 21.0449 23.3866 21.0449 22.8521V21.0905C21.0449 20.5529 21.1414 20.1596 21.3535 19.9055C21.6417 19.5613 22.039 19.3899 22.5488 19.3899C23.0496 19.3899 23.4466 19.5613 23.7263 19.9055C23.9353 20.1596 24.0352 20.5529 24.0352 21.0905V22.1318H24.0348Z" fill="url(#paint0_linear_294_95)"/>
<path d="M22.5399 20.209C22.2063 20.209 22.0391 20.4417 22.0391 20.9066V21.372H23.037V20.9066C23.0368 20.4417 22.87 20.209 22.5399 20.209Z" fill="url(#paint1_linear_294_95)"/>
<path d="M18.836 20.209C18.6716 20.209 18.505 20.2799 18.3383 20.4306V23.496C18.5048 23.6485 18.6716 23.7206 18.836 23.7206C19.1239 23.7206 19.2701 23.496 19.2701 23.0419V20.8952C19.2701 20.4417 19.1239 20.209 18.836 20.209Z" fill="url(#paint2_linear_294_95)"/>
<path d="M19.3936 15.6399C19.7615 15.6399 20.1443 15.4358 20.5458 15.0158V15.5702H21.5545V10.4873H20.5458V14.3721C20.3223 14.6605 20.1104 14.8032 19.9087 14.8032C19.7736 14.8032 19.6942 14.7303 19.6722 14.5874C19.6599 14.5573 19.6599 14.4452 19.6599 14.2295V10.4873H18.6544V14.5065C18.6544 14.8654 18.6881 15.1084 18.7437 15.2622C18.8452 15.5197 19.0689 15.6399 19.3936 15.6399Z" fill="url(#paint3_linear_294_95)"/>
<path d="M12.3715 12.8082V15.5706H13.49V12.8082L14.8355 8.75H13.7045L12.9414 11.4285L12.1474 8.75H10.9704C11.2062 9.38223 11.4515 10.0176 11.6874 10.6504C12.0462 11.6016 12.2701 12.3188 12.3715 12.8082Z" fill="url(#paint4_linear_294_95)"/>
<path d="M16.3347 15.6399C16.84 15.6399 17.2327 15.4663 17.5112 15.1195C17.7229 14.8652 17.8243 14.4645 17.8243 13.9242V12.1444C17.8243 11.601 17.7231 11.2038 17.5112 10.9471C17.2327 10.5994 16.8402 10.4258 16.3347 10.4258C15.832 10.4258 15.4395 10.5994 15.1603 10.9471C14.9461 11.2038 14.8447 11.601 14.8447 12.1444V13.9242C14.8447 14.4645 14.9461 14.8652 15.1603 15.1195C15.4393 15.4663 15.832 15.6399 16.3347 15.6399ZM15.8533 11.9598C15.8533 11.4895 16.0095 11.255 16.3347 11.255C16.6598 11.255 16.8156 11.4893 16.8156 11.9598V14.0978C16.8156 14.5681 16.6598 14.8033 16.3347 14.8033C16.0095 14.8033 15.8533 14.5681 15.8533 14.0978V11.9598Z" fill="url(#paint5_linear_294_95)"/>
<defs>
<linearGradient id="paint0_linear_294_95" x1="15.7389" y1="23.3262" x2="20.2365" y2="10.624" gradientUnits="userSpaceOnUse">
<stop stop-color="#713E8B"/>
<stop offset="0.54" stop-color="#D4242F"/>
<stop offset="1" stop-color="#713E8B"/>
</linearGradient>
<linearGradient id="paint1_linear_294_95" x1="22.4614" y1="21.008" x2="23.1833" y2="19.8945" gradientUnits="userSpaceOnUse">
<stop stop-color="#713E8B"/>
<stop offset="0.54" stop-color="#D4242F"/>
<stop offset="1" stop-color="#713E8B"/>
</linearGradient>
<linearGradient id="paint2_linear_294_95" x1="18.7326" y1="22.6217" x2="20.5884" y2="21.7365" gradientUnits="userSpaceOnUse">
<stop stop-color="#713E8B"/>
<stop offset="0.54" stop-color="#D4242F"/>
<stop offset="1" stop-color="#713E8B"/>
</linearGradient>
<linearGradient id="paint3_linear_294_95" x1="19.8817" y1="14.0274" x2="23.3851" y2="10.483" gradientUnits="userSpaceOnUse">
<stop stop-color="#713E8B"/>
<stop offset="0.54" stop-color="#D4242F"/>
<stop offset="1" stop-color="#713E8B"/>
</linearGradient>
<linearGradient id="paint4_linear_294_95" x1="12.606" y1="13.4361" x2="17.2431" y2="8.7128" gradientUnits="userSpaceOnUse">
<stop stop-color="#713E8B"/>
<stop offset="0.54" stop-color="#D4242F"/>
<stop offset="1" stop-color="#713E8B"/>
</linearGradient>
<linearGradient id="paint5_linear_294_95" x1="16.1056" y1="14.0082" x2="19.6498" y2="10.3676" gradientUnits="userSpaceOnUse">
<stop stop-color="#713E8B"/>
<stop offset="0.54" stop-color="#D4242F"/>
<stop offset="1" stop-color="#713E8B"/>
</linearGradient>
</defs>
</svg>
