<svg width="20" height="19" viewBox="0 0 20 19" fill="none" xmlns="http://www.w3.org/2000/svg">
<path d="M18.2422 2.17578H1.75781C0.789766 2.17578 0 2.89614 0 3.78086V14.4814C0 15.3631 0.78625 16.0865 1.75781 16.0865H18.2422C19.2078 16.0865 20 15.3685 20 14.4814V3.78086C20 2.89914 19.2138 2.17578 18.2422 2.17578ZM17.9995 3.24584L10.0373 10.5162L2.00621 3.24584H17.9995ZM1.17188 14.2598V3.99733L6.81559 9.10648L1.17188 14.2598ZM2.00051 15.0164L7.64777 9.85984L9.62656 11.6512C9.85563 11.8586 10.2253 11.8579 10.4534 11.6495L12.3828 9.88777L17.9995 15.0164H2.00051ZM18.8281 14.2598L13.2114 9.13113L18.8281 4.00243V14.2598Z" fill="url(#paint0_linear_104_68)"/>
<defs>
<linearGradient id="paint0_linear_104_68" x1="8.46348" y1="11.7332" x2="14.8305" y2="-4.72103" gradientUnits="userSpaceOnUse">
<stop stop-color="#713E8B"/>
<stop offset="0.54" stop-color="#D4242F"/>
<stop offset="1" stop-color="#713E8B"/>
</linearGradient>
</defs>
</svg>
